<svg class="animated" id="freepik_stories-researchers" xmlns="http://www.w3.org/2000/svg" viewBox="0 0 500 500" version="1.1" xmlns:xlink="http://www.w3.org/1999/xlink" xmlns:svgjs="http://svgjs.com/svgjs"><style>svg#freepik_stories-researchers:not(.animated) .animable {opacity: 0;}svg#freepik_stories-researchers.animated #freepik--speech-bubble--inject-6 {animation: 3s Infinite  linear shake;animation-delay: 0s;}svg#freepik_stories-researchers.animated #freepik--character-3--inject-6 {animation: 6s Infinite  linear heartbeat;animation-delay: 0s;}svg#freepik_stories-researchers.animated #freepik--character-1--inject-6 {animation: 3s Infinite  linear floating;animation-delay: 0s;}svg#freepik_stories-researchers.animated #freepik--character-2--inject-6 {animation: 6s Infinite  linear floating;animation-delay: 0s;}            @keyframes shake {                10%, 90% {                    transform: translate3d(-1px, 0, 0);                  }                  20%, 80% {                    transform: translate3d(2px, 0, 0);                  }                  30%, 50%, 70% {                    transform: translate3d(-4px, 0, 0);                  }                  40%, 60% {                    transform: translate3d(4px, 0, 0);                  }            }                    @keyframes heartbeat {                0% {                    transform: scale(1);                }                10% {                    transform: scale(1.1);                }                30% {                    transform: scale(1);                }                40% {                    transform: scale(1);                }                50% {                    transform: scale(1.1);                }                60% {                    transform: scale(1);                }                100% {                    transform: scale(1);                }            }                    @keyframes floating {                0% {                    opacity: 1;                    transform: translateY(0px);                }                50% {                    transform: translateY(-10px);                }                100% {                    opacity: 1;                    transform: translateY(0px);                }            }        </style><g id="freepik--background-complete--inject-6" class="animable animator-active" style="transform-origin: 250px 228.23px;"><rect y="382.4" width="500" height="0.25" style="fill: rgb(235, 235, 235); transform-origin: 250px 382.525px;" id="el57qmj288s35" class="animable"></rect><rect x="416.78" y="398.49" width="33.12" height="0.25" style="fill: rgb(235, 235, 235); transform-origin: 433.34px 398.615px;" id="eld3m7tbme1oq" class="animable"></rect><rect x="322.53" y="401.21" width="8.69" height="0.25" style="fill: rgb(235, 235, 235); transform-origin: 326.875px 401.335px;" id="el5hzpa8nl0s7" class="animable"></rect><rect x="396.59" y="389.21" width="19.19" height="0.25" style="fill: rgb(235, 235, 235); transform-origin: 406.185px 389.335px;" id="el6gl28t7uhxb" class="animable"></rect><rect x="52.46" y="390.89" width="43.19" height="0.25" style="fill: rgb(235, 235, 235); transform-origin: 74.055px 391.015px;" id="el1d45lghcp2b" class="animable"></rect><rect x="104.56" y="390.89" width="6.33" height="0.25" style="fill: rgb(235, 235, 235); transform-origin: 107.725px 391.015px;" id="eli9samticj9" class="animable"></rect><rect x="131.47" y="395.11" width="93.68" height="0.25" style="fill: rgb(235, 235, 235); transform-origin: 178.31px 395.235px;" id="elnmu8x7ly1aj" class="animable"></rect><path d="M237,337.8H43.91a5.71,5.71,0,0,1-5.7-5.71V60.66A5.71,5.71,0,0,1,43.91,55H237a5.71,5.71,0,0,1,5.71,5.71V332.09A5.71,5.71,0,0,1,237,337.8ZM43.91,55.2a5.46,5.46,0,0,0-5.45,5.46V332.09a5.46,5.46,0,0,0,5.45,5.46H237a5.47,5.47,0,0,0,5.46-5.46V60.66A5.47,5.47,0,0,0,237,55.2Z" style="fill: rgb(235, 235, 235); transform-origin: 140.46px 196.4px;" id="el55k5g54dmnt" class="animable"></path><path d="M453.31,337.8H260.21a5.72,5.72,0,0,1-5.71-5.71V60.66A5.72,5.72,0,0,1,260.21,55h193.1A5.71,5.71,0,0,1,459,60.66V332.09A5.71,5.71,0,0,1,453.31,337.8ZM260.21,55.2a5.47,5.47,0,0,0-5.46,5.46V332.09a5.47,5.47,0,0,0,5.46,5.46h193.1a5.47,5.47,0,0,0,5.46-5.46V60.66a5.47,5.47,0,0,0-5.46-5.46Z" style="fill: rgb(235, 235, 235); transform-origin: 356.75px 196.4px;" id="el162bzolv4kf" class="animable"></path><g id="el94vasvqyiq9"><rect x="55.62" y="144.81" width="104.7" height="82.41" style="fill: rgb(230, 230, 230); transform-origin: 107.97px 186.015px; transform: rotate(90deg);" class="animable" id="elbumrekxcoe"></rect></g><g id="elpwe1hlo97e"><rect x="68.64" y="135.54" width="78.66" height="100.95" style="fill: rgb(240, 240, 240); transform-origin: 107.97px 186.015px; transform: rotate(180deg);" class="animable" id="elw75nxy3mqyc"></rect></g><path d="M88.9,182.87c3,3.37,3.81-3.32,3.81-3.32l8.72-14.81,1.9,15.2-6.55,47.11s-6,1.78-6.39,2.8,10.28,1.27,11.43,0-1.15-2.8-1.15-2.8l8.25-38.94.13.62,8.12,38.32s-2.28,1.52-1.14,2.8,11.81,1,11.43,0-6.39-2.8-6.39-2.8l-6.55-47.11,1.89-15.2,8.72,14.81s.76,6.69,3.81,3.32-2.29-6.41-2.29-6.41L117.17,160l-5.23-1.81-1.15-1.46s6.71-12-1.74-12.27v0h-.25v0c-8.45.23-1.75,12.27-1.75,12.27l-1.15,1.46L100.67,160l-9.48,16.44S85.86,179.51,88.9,182.87Z" style="fill: rgb(250, 250, 250); transform-origin: 108.922px 187.586px;" id="elxbr5xio5vfq" class="animable"></path><path d="M109.05,144.48v44.25l8.12,38.32s-2.28,1.52-1.14,2.8,11.81,1,11.43,0-6.39-2.8-6.39-2.8l-6.55-47.11,1.89-15.2,8.72,14.81s.76,6.69,3.81,3.32-2.29-6.41-2.29-6.41L117.17,160l-5.23-1.81-1.15-1.46S117.5,144.71,109.05,144.48Z" style="fill: rgb(230, 230, 230); transform-origin: 119.466px 187.594px;" id="ele66dkt2j87l" class="animable"></path><g id="el1fb8b0b75h6"><rect x="80.77" y="147.3" width="10.89" height="4.24" style="fill: rgb(230, 230, 230); transform-origin: 86.215px 149.42px; transform: rotate(180deg);" class="animable" id="elg1oukthqbdt"></rect></g><g id="elhto35ppolak"><rect x="77.08" y="166.38" width="10.89" height="4.24" style="fill: rgb(230, 230, 230); transform-origin: 82.525px 168.5px; transform: rotate(180deg);" class="animable" id="eljfxy5d22zk"></rect></g><g id="el0enpip5w112d"><rect x="128.78" y="186.41" width="10.89" height="4.24" style="fill: rgb(230, 230, 230); transform-origin: 134.225px 188.53px; transform: rotate(180deg);" class="animable" id="eluc0eiz07q"></rect></g><g id="elvnmh56shq3"><rect x="124.43" y="147.14" width="10.89" height="4.24" style="fill: rgb(230, 230, 230); transform-origin: 129.875px 149.26px; transform: rotate(180deg);" class="animable" id="el2qia6iw0u2j"></rect></g><g id="el1j68twoepgd"><rect x="80.77" y="193.45" width="10.89" height="4.24" style="fill: rgb(230, 230, 230); transform-origin: 86.215px 195.57px; transform: rotate(180deg);" class="animable" id="ele9vzahcsp59"></rect></g><g id="elk9j92tpxgs8"><rect x="125.8" y="209.69" width="10.89" height="4.24" style="fill: rgb(230, 230, 230); transform-origin: 131.245px 211.81px; transform: rotate(180deg);" class="animable" id="el6ywpm6iq0u5"></rect></g><g id="elxx5do88nne"><rect x="75.32" y="213.93" width="10.89" height="4.24" style="fill: rgb(230, 230, 230); transform-origin: 80.765px 216.05px; transform: rotate(180deg);" class="animable" id="elw92tbi1s4p"></rect></g><g id="elp61tyrpbpck"><rect x="144.4" y="146.22" width="105.7" height="79.59" style="fill: rgb(230, 230, 230); transform-origin: 197.25px 186.015px; transform: rotate(-90deg);" class="animable" id="elnhvfbroxqts"></rect></g><rect x="159.33" y="135.05" width="75.84" height="101.94" style="fill: rgb(245, 245, 245); transform-origin: 197.25px 186.02px;" id="elsiqv4q4cq5r" class="animable"></rect><rect x="159.33" y="135.05" width="75.84" height="25.34" style="fill: rgb(250, 250, 250); transform-origin: 197.25px 147.72px;" id="elg2wa74l7em" class="animable"></rect><rect x="159.33" y="183.83" width="75.84" height="27.86" style="fill: rgb(250, 250, 250); transform-origin: 197.25px 197.76px;" id="eltmofoe7d29i" class="animable"></rect><g id="el1k02slbvlr8"><circle cx="174.13" cy="146.59" r="7.67" style="fill: rgb(245, 245, 245); transform-origin: 174.13px 146.59px; transform: rotate(-13.28deg);" class="animable" id="eluyjv3g27xt"></circle></g><g id="el4rnhi44n0je"><circle cx="223.49" cy="171.93" r="7.67" style="fill: rgb(250, 250, 250); transform-origin: 223.49px 171.93px; transform: rotate(-7.02deg);" class="animable" id="elwby8wkl3c1"></circle></g><g id="elh7qmcqes72w"><circle cx="173.22" cy="199.01" r="7.67" style="fill: rgb(245, 245, 245); transform-origin: 173.22px 199.01px; transform: rotate(-76.72deg);" class="animable" id="el85ai42h69mr"></circle></g><g id="elyrjmyd2bq8p"><circle cx="222.58" cy="224.36" r="7.67" style="fill: rgb(250, 250, 250); transform-origin: 222.58px 224.36px; transform: rotate(-45deg);" class="animable" id="elrizxe7k5vte"></circle></g><path d="M88.6,354.47c0-.31,1-30.4,5.93-35.16s10.23-.18,10.46,0l.49-.58c-.06-.06-6.23-5.09-11.49,0-5.11,5-6.11,34.43-6.15,35.68Z" style="fill: rgb(224, 224, 224); transform-origin: 96.66px 335.462px;" id="eliqixzb0gjug" class="animable"></path><path d="M88.18,360.38c0-.36,3.35-36.13-9.71-51.12l-.58.5c12.85,14.74,9.57,50.19,9.53,50.55Z" style="fill: rgb(224, 224, 224); transform-origin: 83.2276px 334.82px;" id="elcs805h1d5g5" class="animable"></path><path d="M88.67,356.6l.76-.05c0-.41-2.56-40.67,7-49.49l-.52-.56C86.09,315.56,88.56,354.93,88.67,356.6Z" style="fill: rgb(224, 224, 224); transform-origin: 92.3725px 331.55px;" id="elnih47mbo2o" class="animable"></path><path d="M87.42,356.58h.77c0-1.11-.32-27.2-7.73-31.44a5.22,5.22,0,0,0-4.8-.47c-4.48,1.85-6.7,9.83-6.79,10.17l.74.2c0-.08,2.21-7.95,6.35-9.66a4.51,4.51,0,0,1,4.12.42C87.11,329.82,87.42,356.31,87.42,356.58Z" style="fill: rgb(224, 224, 224); transform-origin: 78.53px 340.436px;" id="ela2y4h625679" class="animable"></path><path d="M90.31,356.59l.76,0c0-.2-1.12-20.61,4.39-27.81,1.33-1.74,2.78-2.57,4.31-2.46,3.61.25,6.64,5.53,6.67,5.59l.67-.38c-.13-.23-3.26-5.69-7.28-6-1.8-.13-3.48.8-5,2.76C89.17,335.7,90.26,355.75,90.31,356.59Z" style="fill: rgb(224, 224, 224); transform-origin: 98.652px 341.054px;" id="elu0c0soslw9j" class="animable"></path><path d="M89.1,359.37c.15-2,3.6-48.58-2.47-56.79L86,303c5.9,8,2.36,55.8,2.32,56.28Z" style="fill: rgb(224, 224, 224); transform-origin: 88.1056px 330.975px;" id="elbuufabme88c" class="animable"></path><path d="M74,329.38s3.65,1.34,2.56,4.52S64,342.28,64,342.28s-4.82-4.42-.39-11.61S73.91,327.11,74,329.38Z" style="fill: rgb(235, 235, 235); transform-origin: 69.2503px 334.353px;" id="eliitiwttpiul" class="animable"></path><path d="M89.85,323.35s-3.88-.17-4.1,3.18,8.4,12.59,8.4,12.59,6.16-2.23,4.83-10.57S90.81,321.29,89.85,323.35Z" style="fill: rgb(235, 235, 235); transform-origin: 92.457px 330.504px;" id="elvqiy3stb7gp" class="animable"></path><path d="M93.13,307.35s-2.58-.28-2.38-1.86,10.06-5.63,15.86.93c0,0-3.71,6.39-9.09,6.47S93.13,307.35,93.13,307.35Z" style="fill: rgb(235, 235, 235); transform-origin: 98.6745px 307.845px;" id="elbmtd8dttcoa" class="animable"></path><path d="M88.31,303.52s2.34,1.13,3-.31-5.55-10.1-14-7.61c0,0-.22,7.39,4.3,10.31S88.31,303.52,88.31,303.52Z" style="fill: rgb(235, 235, 235); transform-origin: 84.3332px 300.97px;" id="elo2c0ypdxhh" class="animable"></path><path d="M100.56,328.11s-1.79-1.44.14-2.15,11.37-.5,11.47,8.86c0,0-11,1.83-12.37-1.74S100.56,328.11,100.56,328.11Z" style="fill: rgb(235, 235, 235); transform-origin: 105.755px 330.5px;" id="el2vbr0r9huc7" class="animable"></path><path d="M78.11,307.11S79.9,305.67,78,305s-11.38-.51-11.48,8.85c0,0,11,1.83,12.37-1.73S78.11,307.11,78.11,307.11Z" style="fill: rgb(235, 235, 235); transform-origin: 72.9333px 309.542px;" id="elbphia6ovkj" class="animable"></path><path d="M83.93,314.65s.16-1.75-1.26-1.06-6.34,6-1.23,11c0,0,6.87-5.09,5.63-7.74S83.93,314.65,83.93,314.65Z" style="fill: rgb(235, 235, 235); transform-origin: 83.1956px 319.009px;" id="elcaf540idh27" class="animable"></path><path d="M102.15,317.15s-1.06-1.4.5-1.57,8.56,1.69,6.93,8.68c0,0-8.53-.64-8.89-3.54S102.15,317.15,102.15,317.15Z" style="fill: rgb(235, 235, 235); transform-origin: 105.234px 319.915px;" id="elkznq2y1a0np" class="animable"></path><polygon points="73.33 382.52 102.6 382.52 105.76 350.48 70.17 350.48 73.33 382.52" style="fill: rgb(240, 240, 240); transform-origin: 87.965px 366.5px;" id="elymq2ev5ey6k" class="animable"></polygon><g id="el6f6olbbvf6r"><rect x="68.61" y="346.94" width="38.71" height="7.07" style="fill: rgb(230, 230, 230); transform-origin: 87.965px 350.475px; transform: rotate(180deg);" class="animable" id="eliobz2ekiiua"></rect></g><polygon points="408.11 374.69 408.11 274.8 403.14 274.8 403.14 374.69 387 380.21 387 382.52 405.01 382.52 406.24 382.52 424.25 382.52 424.25 380.21 408.11 374.69" style="fill: rgb(235, 235, 235); transform-origin: 405.625px 328.66px;" id="eldcshoutxyxf" class="animable"></polygon><polygon points="308.05 374.69 308.05 274.8 303.08 274.8 303.08 374.69 286.94 380.21 286.94 382.52 304.95 382.52 306.18 382.52 324.19 382.52 324.19 380.21 308.05 374.69" style="fill: rgb(235, 235, 235); transform-origin: 305.565px 328.66px;" id="elpwh7zlsagz" class="animable"></polygon><rect x="279.29" y="177.23" width="152.62" height="106.91" style="fill: rgb(235, 235, 235); transform-origin: 355.6px 230.685px;" id="elk5ju8ojggv" class="animable"></rect><g id="ela296t1w5u1w"><rect x="305.14" y="157.37" width="100.91" height="146.62" style="fill: rgb(250, 250, 250); transform-origin: 355.595px 230.68px; transform: rotate(90deg);" class="animable" id="el6j50zqkefzf"></rect></g></g><g id="freepik--Shadow--inject-6" class="animable" style="transform-origin: 250px 416.24px;"><ellipse id="freepik--path--inject-6" cx="250" cy="416.24" rx="193.89" ry="11.32" style="fill: rgb(245, 245, 245); transform-origin: 250px 416.24px;" class="animable"></ellipse></g><g id="freepik--speech-bubble--inject-6" class="animable" style="transform-origin: 255.8px 164.18px;"><path d="M300.82,105.5h-90a8.45,8.45,0,0,0-8.46,8.45V195.4a8.46,8.46,0,0,0,8.46,8.46H226l-4.2,19,17.9-19h61.09a8.45,8.45,0,0,0,8.45-8.46V114A8.45,8.45,0,0,0,300.82,105.5Z" style="fill: #90CAF9; transform-origin: 255.8px 164.18px;" id="el4j9g0z7q5vb" class="animable"></path><g id="elim5djye1ooa"><path d="M300.82,105.5h-90a8.45,8.45,0,0,0-8.46,8.45V195.4a8.46,8.46,0,0,0,8.46,8.46H226l-4.2,19,17.9-19h61.09a8.45,8.45,0,0,0,8.45-8.46V114A8.45,8.45,0,0,0,300.82,105.5Z" style="fill: rgb(255, 255, 255); opacity: 0.7; transform-origin: 255.8px 164.18px;" class="animable" id="el6fqsgaxu6lr"></path></g><path d="M229.89,197.05l-1.64-1.27c4-5.18,3.45-11.15,2.85-17.46-.18-1.92-.37-3.92-.42-5.87-.24-9.55,5.54-17.16,14.38-18.94,3.9-.79,7.73-.31,11.43.14,4.82.6,9.37,1.16,14-.92,6.52-3,9.9-9.64,9.28-18.34-.08-1.21-.21-2.43-.33-3.65-.6-5.88-1.22-12,2.4-17.44l1.73,1.14c-3.21,4.86-2.66,10.31-2.07,16.09.12,1.24.25,2.48.34,3.71.68,9.61-3.15,17-10.49,20.37-5.13,2.33-10.19,1.7-15.09,1.1-3.69-.46-7.19-.89-10.76-.17-7.94,1.6-12.94,8.22-12.72,16.86,0,1.88.23,3.83.41,5.72C233.78,184.56,234.42,191.22,229.89,197.05Z" style="fill: #90CAF9; transform-origin: 255.91px 155.175px;" id="eldco6lv78b8k" class="animable"></path><path d="M214.88,182.27l-1.25-1.65c5.88-4.47,12.53-3.76,19-3.08,1.89.2,3.84.41,5.72.48,8.64.3,15.3-4.62,17-12.55.76-3.56.36-7.06-.06-10.76-.55-4.9-1.13-10,1.26-15.08,3.41-7.31,10.86-11,20.48-10.27,1.23.1,2.47.24,3.71.38,5.76.64,11.21,1.26,16.1-1.9l1.12,1.74c-5.51,3.56-11.58,2.87-17.45,2.21-1.22-.13-2.44-.27-3.65-.37-8.7-.7-15.41,2.61-18.44,9.09-2.13,4.58-1.62,9.14-1.07,14,.42,3.7.85,7.53,0,11.42-1.87,8.82-9.57,14.54-19.08,14.19-2-.07-4-.28-5.87-.49C226.06,178.93,220.1,178.3,214.88,182.27Z" style="fill: #90CAF9; transform-origin: 255.795px 155.055px;" id="eliz60pmngws" class="animable"></path><g id="el2k3tn3jhs1i"><rect x="275.25" y="128.61" width="2.07" height="12.61" style="fill: #90CAF9; transform-origin: 276.285px 134.915px; transform: rotate(-44.7deg);" class="animable" id="eldabbfsy2ry"></rect></g><g id="el8k1azvpck86"><rect x="271.1" y="129.21" width="2.07" height="19.85" style="fill: #90CAF9; transform-origin: 272.135px 139.135px; transform: rotate(-44.7deg);" class="animable" id="el0ecauok06cws"></rect></g><g id="elm036ra77wdh"><rect x="266.81" y="132.63" width="2.07" height="21.14" style="fill: #90CAF9; transform-origin: 267.845px 143.2px; transform: rotate(-44.7deg);" class="animable" id="el87im1nnngem"></rect></g><g id="elj9ks1y1well"><rect x="262.72" y="138.19" width="2.07" height="18.55" style="fill: #90CAF9; transform-origin: 263.755px 147.465px; transform: rotate(-44.7deg);" class="animable" id="elgf4qxmbjcrp"></rect></g><g id="elevveeakqj1k"><rect x="258.42" y="146.31" width="2.07" height="10.43" style="fill: #90CAF9; transform-origin: 259.455px 151.525px; transform: rotate(-44.7deg);" class="animable" id="eloqz8cezkz4c"></rect></g><g id="eld6cf40jk4xo"><rect x="251.47" y="152.14" width="2.07" height="12.61" style="fill: #90CAF9; transform-origin: 252.505px 158.445px; transform: rotate(-44.7deg);" class="animable" id="ell06d6pkwwz"></rect></g><g id="elmv0xrb0btsn"><rect x="247.33" y="152.74" width="2.07" height="19.85" style="fill: #90CAF9; transform-origin: 248.365px 162.665px; transform: rotate(-44.7deg);" class="animable" id="elhjm8b3i0i8o"></rect></g><g id="elcm2jnp10cgv"><rect x="243.03" y="156.16" width="2.07" height="21.14" style="fill: #90CAF9; transform-origin: 244.065px 166.73px; transform: rotate(-44.7deg);" class="animable" id="elyu4dlwwwmmd"></rect></g><g id="eliww4z7puma"><rect x="238.94" y="161.72" width="2.07" height="18.55" style="fill: #90CAF9; transform-origin: 239.975px 170.995px; transform: rotate(-44.7deg);" class="animable" id="els4t2whshzs9"></rect></g><g id="el2krbcjyyudk"><rect x="234.65" y="169.84" width="2.07" height="10.43" style="fill: #90CAF9; transform-origin: 235.685px 175.055px; transform: rotate(-44.7deg);" class="animable" id="elg9ua77dlt6v"></rect></g><rect x="267.66" y="175.67" width="26.11" height="17.06" style="fill: rgb(255, 255, 255); transform-origin: 280.715px 184.2px;" id="elyiq2lnbrg2" class="animable"></rect><path d="M290.37,180.2h-19.3a.5.5,0,0,1-.5-.5.5.5,0,0,1,.5-.5h19.3a.5.5,0,0,1,.5.5A.5.5,0,0,1,290.37,180.2Z" style="fill: rgb(38, 50, 56); transform-origin: 280.72px 179.7px;" id="elu56225lu2gb" class="animable"></path><path d="M290.37,183.2h-19.3a.5.5,0,0,1,0-1h19.3a.5.5,0,0,1,0,1Z" style="fill: rgb(38, 50, 56); transform-origin: 280.72px 182.7px;" id="elck1cuo5gtjn" class="animable"></path><path d="M290.37,186.2h-19.3a.5.5,0,0,1-.5-.5.5.5,0,0,1,.5-.5h19.3a.5.5,0,0,1,.5.5A.5.5,0,0,1,290.37,186.2Z" style="fill: rgb(38, 50, 56); transform-origin: 280.72px 185.7px;" id="el8t7h7knmts" class="animable"></path><path d="M286.37,189.2h-15.3a.5.5,0,0,1-.5-.5.5.5,0,0,1,.5-.5h15.3a.5.5,0,0,1,.5.5A.5.5,0,0,1,286.37,189.2Z" style="fill: rgb(38, 50, 56); transform-origin: 278.72px 188.7px;" id="elslayhxwsumn" class="animable"></path><rect x="216.86" y="116.36" width="26.11" height="17.06" style="fill: rgb(255, 255, 255); transform-origin: 229.915px 124.89px;" id="ellzbozfzzs7a" class="animable"></rect><path d="M239.57,120.89H220.26a.51.51,0,0,1-.5-.5.5.5,0,0,1,.5-.5h19.31a.5.5,0,0,1,.5.5A.51.51,0,0,1,239.57,120.89Z" style="fill: rgb(38, 50, 56); transform-origin: 229.915px 120.39px;" id="elnhs83dwz96" class="animable"></path><path d="M239.57,123.89H220.26a.5.5,0,0,1,0-1h19.31a.5.5,0,0,1,0,1Z" style="fill: rgb(38, 50, 56); transform-origin: 229.915px 123.39px;" id="elgxq23po7qt4" class="animable"></path><path d="M239.57,126.89H220.26a.5.5,0,0,1,0-1h19.31a.5.5,0,0,1,0,1Z" style="fill: rgb(38, 50, 56); transform-origin: 229.915px 126.39px;" id="el3lwu92788s6" class="animable"></path><path d="M235.56,129.89h-15.3a.5.5,0,0,1-.5-.5.51.51,0,0,1,.5-.5h15.3a.5.5,0,0,1,.5.5A.5.5,0,0,1,235.56,129.89Z" style="fill: rgb(38, 50, 56); transform-origin: 227.91px 129.39px;" id="el7dmyr9liidx" class="animable"></path><g id="elmzwavebuhf"><rect x="252.07" y="117.81" width="1" height="22.7" style="fill: rgb(255, 255, 255); transform-origin: 252.57px 129.16px; transform: rotate(-67.92deg);" class="animable" id="elg90hvyh4tne"></rect></g><path d="M240.9,171a.93.93,0,0,1-1.86,0,.93.93,0,0,1,1.86,0Z" style="fill: rgb(255, 255, 255); transform-origin: 239.97px 171px;" id="elwbsl8n64q6m" class="animable"></path><g id="elllwvvfgjft"><rect x="253.76" y="162.05" width="1" height="31.78" style="fill: rgb(255, 255, 255); transform-origin: 254.26px 177.94px; transform: rotate(-64.07deg);" class="animable" id="el1tpx2ov4fsq"></rect></g><path d="M264.06,133.42a.93.93,0,1,1-.93-.93A.93.93,0,0,1,264.06,133.42Z" style="fill: rgb(255, 255, 255); transform-origin: 263.13px 133.42px;" id="el16kfpo7aqcb" class="animable"></path></g><g id="freepik--character-3--inject-6" class="animable" style="transform-origin: 356.635px 284.589px;"><path d="M336.82,171.64a.67.67,0,0,0-.24.91l6.16,10.55a.68.68,0,0,0,.62.32l1.34,2.29.51-.3-1.34-2.29a.68.68,0,0,0,0-.7l-6.16-10.54A.67.67,0,0,0,336.82,171.64Z" style="fill: #90CAF9; transform-origin: 340.851px 178.635px;" id="elgx7uakcinbo" class="animable"></path><g id="elkj8dxn7dw7"><path d="M336.82,171.64a.67.67,0,0,0-.24.91l6.16,10.55a.68.68,0,0,0,.62.32l1.34,2.29.51-.3-1.34-2.29a.68.68,0,0,0,0-.7l-6.16-10.54A.67.67,0,0,0,336.82,171.64Z" style="fill: rgb(255, 255, 255); opacity: 0.4; transform-origin: 340.851px 178.635px;" class="animable" id="elx4gldc143m"></path></g><path d="M338,170.76a1.48,1.48,0,1,1-2.18-.9A1.7,1.7,0,0,1,338,170.76Z" style="fill: #90CAF9; transform-origin: 336.569px 171.179px;" id="el70ifvj91ocg" class="animable"></path><path d="M338.41,173.16l-1,.6a.52.52,0,0,1-.7-.18h0a.51.51,0,0,1,.19-.7l1-.6a.51.51,0,0,1,.7.18h0A.52.52,0,0,1,338.41,173.16Z" style="fill: #90CAF9; transform-origin: 337.653px 173.018px;" id="elugiuiku4yw" class="animable"></path><path d="M327.55,180.9l3.64,3c4.69,1.62,5.74-4.78,5.74-4.78l1.75-2.87a2.51,2.51,0,0,0-.71-3.17L335.45,171a2.62,2.62,0,0,0-3.65,0l-1.92,2.23a5.19,5.19,0,0,0-1.13,2.26Z" style="fill: rgb(255, 181, 115); transform-origin: 333.259px 177.211px;" id="elry2d15gbcpf" class="animable"></path><path d="M360.7,194.62c1.15,2.88-5.18,12-5.18,12s-26,8.4-28.46,6.53c-6.42-4.84.1-32.5.1-32.5L334,184.2c-.75,4.91-.75,18.49-.75,18.49s12.47-3.36,17.65-6.65A11.29,11.29,0,0,1,360.7,194.62Z" style="fill: #90CAF9; transform-origin: 342.536px 197.036px;" id="ell3lwg3yklh" class="animable"></path><g id="elr3y7vy5j0nq"><path d="M355.53,206.65l-.39.13c-1.22.38-5.17,1.63-9.76,2.95-7.58,2.18-16.88,4.53-18.31,3.45-6.43-4.84.09-32.5.09-32.5L334,184.2c-.75,4.91-.75,18.49-.75,18.49s12.48-3.36,17.65-6.65a11.29,11.29,0,0,1,9.78-1.42C361.85,197.5,355.53,206.65,355.53,206.65Z" style="fill: rgb(255, 255, 255); opacity: 0.7; transform-origin: 342.53px 197.066px;" class="animable" id="elexaboee9ic"></path></g><path d="M390,277s-19.88-10.57-47.49-8.3c0,0,8.4-54.78,10.62-62.06s40.88,4,40.88,4-4,21.77-4.52,35.36S391.88,274.79,390,277Z" style="fill: #90CAF9; transform-origin: 368.26px 240.596px;" id="el4q5571xvyzu" class="animable"></path><g id="eltzj00mhbrg"><path d="M390,277s-19.88-10.57-47.49-8.3c0,0,8.4-54.78,10.62-62.06s40.88,4,40.88,4-4,21.77-4.52,35.36S391.88,274.79,390,277Z" style="fill: rgb(255, 255, 255); opacity: 0.5; transform-origin: 368.26px 240.596px;" class="animable" id="el8koajofzy5v"></path></g><polygon points="330.39 410.54 337.49 412.55 339.18 401.5 340.09 395.59 332.99 393.58 331.78 401.5 330.39 410.54" style="fill: rgb(255, 181, 115); transform-origin: 335.24px 403.065px;" id="elk1hai4sylm8" class="animable"></polygon><polygon points="371.21 411.12 378.53 412.09 378.6 401.5 378.65 394.92 371.32 393.96 371.27 401.5 371.21 411.12" style="fill: rgb(255, 181, 115); transform-origin: 374.93px 403.025px;" id="elitb1eu5kkp" class="animable"></polygon><g id="el1qjj0x6q555"><polygon points="371.32 393.96 371.27 401.5 378.6 401.5 378.65 394.92 371.32 393.96" style="opacity: 0.2; transform-origin: 374.96px 397.73px;" class="animable" id="el7kgnjkn8ag2"></polygon></g><g id="elfv8tssxbk2"><polygon points="331.78 401.5 339.18 401.5 340.09 395.59 332.99 393.58 331.78 401.5" style="opacity: 0.2; transform-origin: 335.935px 397.54px;" class="animable" id="elrfohof38lq"></polygon></g><path d="M330.48,409.43l8.06-.21a.65.65,0,0,1,.65.48l1.69,6.49a1.07,1.07,0,0,1-1,1.34c-2.91,0-7.12,0-10.77.07-4.28.12-7-.09-12,0-3,.08-4-2.94-2.72-3.25,5.73-1.42,9.48-1.14,14.36-4.34A3.49,3.49,0,0,1,330.48,409.43Z" style="fill: rgb(38, 50, 56); transform-origin: 327.38px 413.429px;" id="elw2qv8t504hc" class="animable"></path><path d="M329.79,410.47h0c-1.18.26-3.28.61-4.12-.08a1,1,0,0,1-.36-.84.54.54,0,0,1,.27-.47c.89-.53,3.91.9,4.25,1.06a.2.2,0,0,1,.1.18A.18.18,0,0,1,329.79,410.47Zm-4-1.11-.06,0a.22.22,0,0,0-.11.19.64.64,0,0,0,.23.55c.47.39,1.69.43,3.31.11C328,409.72,326.35,409.15,325.8,409.36Z" style="fill: #90CAF9; transform-origin: 327.619px 409.878px;" id="elxa7ijsjykk" class="animable"></path><path d="M329.79,410.47h-.13c-.91-.38-2.73-1.92-2.63-2.75,0-.2.16-.45.64-.51a1.35,1.35,0,0,1,1,.27c1,.75,1.23,2.72,1.25,2.8a.18.18,0,0,1-.07.16S329.8,410.46,329.79,410.47Zm-2.25-2.87c-.15,0-.16.13-.16.16-.06.5,1.18,1.72,2.11,2.24a4.1,4.1,0,0,0-1.05-2.24.94.94,0,0,0-.73-.2A.61.61,0,0,0,327.54,407.6Z" style="fill: #90CAF9; transform-origin: 328.473px 408.834px;" id="elxgu8j033tmr" class="animable"></path><path d="M371.5,409.43l8.06-.21a.64.64,0,0,1,.65.48l1.69,6.49a1.06,1.06,0,0,1-1,1.34c-2.91,0-7.12,0-10.78.07-4.27.12-7-.09-12,0-3,.08-4-2.94-2.72-3.25,5.73-1.42,9.47-1.14,14.35-4.34A3.49,3.49,0,0,1,371.5,409.43Z" style="fill: rgb(38, 50, 56); transform-origin: 368.396px 413.429px;" id="eldun1jxt56rg" class="animable"></path><path d="M370.81,410.47h0c-1.18.26-3.29.61-4.12-.08a1,1,0,0,1-.36-.84.54.54,0,0,1,.27-.47c.88-.53,3.9.9,4.24,1.06a.17.17,0,0,1,.1.18A.18.18,0,0,1,370.81,410.47Zm-4-1.11-.06,0a.2.2,0,0,0-.1.19.62.62,0,0,0,.23.55c.47.39,1.69.43,3.31.11C369,409.72,367.37,409.15,366.82,409.36Z" style="fill: #90CAF9; transform-origin: 368.635px 409.878px;" id="el2wwb93x8tmh" class="animable"></path><path d="M370.81,410.47h-.13c-.9-.38-2.73-1.92-2.62-2.75,0-.2.15-.45.63-.51a1.33,1.33,0,0,1,1,.27,5,5,0,0,1,1.25,2.8.16.16,0,0,1-.07.16S370.83,410.46,370.81,410.47Zm-2.25-2.87c-.14,0-.15.13-.15.16-.07.5,1.18,1.72,2.11,2.24a4.11,4.11,0,0,0-1.06-2.24.91.91,0,0,0-.72-.2Z" style="fill: #90CAF9; transform-origin: 369.499px 408.834px;" id="elm8rzattv1qm" class="animable"></path><path d="M386.31,250.18c3.88,16.81-2.78,149.06-2.78,149.06H370.67L365.17,289,344.92,399.24l-13.75-1c9-85.38,16.93-136.35,16.93-136.35l1.17-6.6Z" style="fill: rgb(38, 50, 56); transform-origin: 359.347px 324.71px;" id="elquy0upggp9n" class="animable"></path><g id="elo80fr6nx1rf"><path d="M386.31,250.18c3.88,16.81-2.78,149.06-2.78,149.06H370.67L365.17,289,344.92,399.24l-13.75-1c9-85.38,16.93-136.35,16.93-136.35l1.17-6.6Z" style="fill: rgb(255, 255, 255); opacity: 0.2; transform-origin: 359.347px 324.71px;" class="animable" id="el7e32wa04aej"></path></g><path d="M396.37,197.37A159.73,159.73,0,0,0,391.49,221c-.75,5.57-1.22,10.89-1.54,15.72-.74,11.32-2.75,19.75-3.12,22.67-5.63-.52-26-3-37.56-4.08-1.18-28.73,6.36-59.33,6.36-59.33l9.66-2.88s1.33,0,2,0a140.38,140.38,0,0,1,16.33,1.5c1,.15,2.07.32,3.08.51C391.85,196,396.37,197.37,396.37,197.37Z" style="fill: #90CAF9; transform-origin: 372.757px 226.245px;" id="el13xwlm3we93f" class="animable"></path><path d="M382.36,194.07s-10.11,4.75-12.67,4.12c-1.8-.44-3.72-4-3.72-4a7.94,7.94,0,0,0,3.34-1.59c2.35-2,2-5.24,1.19-8.3l9.92-8.66a51.44,51.44,0,0,0-.8,7.77h0C379.52,187.67,380.12,192,382.36,194.07Z" style="fill: rgb(255, 181, 115); transform-origin: 374.165px 186.944px;" id="elbyzhzf1npc" class="animable"></path><g id="el559jp70wo1v"><path d="M379.62,183.41h0c-1.84,4.36-5.05,9.15-10.31,9.18,2.35-2,2-5.24,1.19-8.3l9.92-8.66A51.44,51.44,0,0,0,379.62,183.41Z" style="opacity: 0.2; transform-origin: 374.865px 184.11px;" class="animable" id="elhe2u9lvj54b"></path></g><path d="M369.68,198.19s1.64,2.38,3.6,4.76c3.3-1.24,11.09-4.66,11.16-8.61-.31-1.19-3.21-2.23-3.21-2.23S377.53,196,369.68,198.19Z" style="fill: #90CAF9; transform-origin: 377.06px 197.53px;" id="el0c6ahirzagdc" class="animable"></path><path d="M369.68,198.19a20.86,20.86,0,0,0-4.5,3.87c-2.14-1.75-.18-8.89.76-9.6a8.14,8.14,0,0,1,4.07-.6A6.75,6.75,0,0,0,369.68,198.19Z" style="fill: #90CAF9; transform-origin: 367.113px 196.936px;" id="elsmmj2wd6zm" class="animable"></path><g id="elfc639084brw"><g style="opacity: 0.2; transform-origin: 374.328px 197.381px;" class="animable" id="elkbpbiy2nks"><path d="M369.68,198.19s1.64,2.38,3.6,4.76c3.3-1.24,11.09-4.66,11.16-8.61-.31-1.19-3.21-2.23-3.21-2.23S377.53,196,369.68,198.19Z" style="fill: rgb(255, 255, 255); transform-origin: 377.06px 197.53px;" id="elq4ln4lr9ivq" class="animable"></path><path d="M369.68,198.19a20.86,20.86,0,0,0-4.5,3.87c-2.14-1.75-.18-8.89.76-9.6a8.14,8.14,0,0,1,4.07-.6A6.75,6.75,0,0,0,369.68,198.19Z" style="fill: rgb(255, 255, 255); transform-origin: 367.113px 196.936px;" id="elj4pt6ttat9n" class="animable"></path></g></g><g id="elfh8um7k2xx"><path d="M355.14,206.78c-1.22.38-5.17,1.63-9.76,2.95,3.74-5.89,10.66-8.88,10.66-8.88A10.51,10.51,0,0,1,355.14,206.78Z" style="opacity: 0.1; transform-origin: 350.761px 205.29px;" class="animable" id="el75own8qu0a6"></path></g><path d="M384.44,194.34a164,164,0,0,0-2.77,28.36v0c-.11,12.92,9.57,48.86,6.46,56.44,0,0,2.81-.45,3.66-1.78s-2.44-20.92-1.08-34.89,7.5-45,7.5-45A46.21,46.21,0,0,0,389,195C387.62,194.78,386.1,194.53,384.44,194.34Z" style="fill: #90CAF9; transform-origin: 389.94px 236.74px;" id="elwx2gno7685" class="animable"></path><g id="el3rqqjjsk4yf"><path d="M398.21,197.54s-.84,4.26-2,10.33c-.34,1.82-.71,3.81-1.09,5.89,0,.13,0,.25-.06.38v0c-.46,2.59-.94,5.31-1.42,8.06h0c-.88,5.12-1.7,10.3-2.3,14.73-.27,2-.49,3.9-.66,5.54-1.35,14,1.93,33.56,1.08,34.88s-3.66,1.79-3.66,1.79c3.11-7.58-5-34.63-5.84-42.7-.24-2.24-.4-4.47-.49-6.67-.11-2.39-.15-4.76-.13-7.07v0c0-.5,0-1,0-1.49a166.86,166.86,0,0,1,2.68-26.55c0-.22.07-.32.07-.32,1.66.19,3.18.43,4.56.68A46.72,46.72,0,0,1,398.21,197.54Z" style="fill: rgb(255, 255, 255); opacity: 0.7; transform-origin: 389.923px 236.74px;" class="animable" id="el5ot4he10vpu"></path></g><g id="elkuz579lu3x"><path d="M384.44,194.34a164,164,0,0,0-2.77,28.36v0l9.49-18.48-5.08-1.71L392,200.7,389,195C387.62,194.78,386.1,194.53,384.44,194.34Z" style="fill: rgb(255, 255, 255); opacity: 0.4; transform-origin: 386.835px 208.52px;" class="animable" id="el2306gaqw619i"></path></g><path d="M341.82,270.53l1.11,1.27A449.87,449.87,0,0,1,353,223.46c.35-1.31.69-2.58,1-3.79,6.4-23,11-26.39,11.28-26.59l-3.63.37-6.6.68C348.64,213.54,341.82,270.53,341.82,270.53Z" style="fill: #90CAF9; transform-origin: 353.55px 232.44px;" id="el8rvlv6chiio" class="animable"></path><g id="elky6tvaz3ein"><path d="M341.82,270.53l1.11,1.27A449.87,449.87,0,0,1,353,223.46c.35-1.31.69-2.58,1-3.79,6.4-23,11-26.39,11.28-26.59l-3.63.37-6.6.68C348.64,213.54,341.82,270.53,341.82,270.53Z" style="fill: rgb(255, 255, 255); opacity: 0.7; transform-origin: 353.55px 232.44px;" class="animable" id="elrprg19zf2yi"></path></g><g id="elazb7tegw406"><path d="M359.77,200.38l-4.42,1.52s-1.64,11.6-1.34,17.77c6.4-23,11-26.39,11.28-26.59l-3.63.37a23.2,23.2,0,0,0-6,4.89Z" style="fill: rgb(255, 255, 255); opacity: 0.4; transform-origin: 359.632px 206.375px;" class="animable" id="elokyquvif1dc"></path></g><g id="el63c9t05n2cg"><path d="M360.86,312.48,365.17,289l-.83-12.41S358.43,298.14,360.86,312.48Z" style="opacity: 0.2; transform-origin: 362.722px 294.535px;" class="animable" id="elp0my22ugx3"></path></g><polygon points="345.88 400.34 329.79 400.34 330.39 396.17 346.48 396.17 345.88 400.34" style="fill: #90CAF9; transform-origin: 338.135px 398.255px;" id="elk9f5088faik" class="animable"></polygon><rect x="369.49" y="396.17" width="15.5" height="4.16" style="fill: #90CAF9; transform-origin: 377.24px 398.25px;" id="elqjycjud85z" class="animable"></rect><g id="elurvhv1mr0ge"><path d="M396.24,207.87c-.34,1.82-.71,3.81-1.09,5.89,0,.13,0,.25-.06.38v0c-.46,2.59-.94,5.31-1.42,8.06h0s-6.81,4.54-11.87,7.57c-2.7,1.61-4.91,2.8-5.33,2.63a49.25,49.25,0,0,1-24.7-22c.57.44,19.93,15.54,26,13.58a10.14,10.14,0,0,0,3.93-2.85c4.79-5.08,9-14.76,9-14.76A47.42,47.42,0,0,1,396.24,207.87Z" style="opacity: 0.1; transform-origin: 374.005px 219.393px;" class="animable" id="el3ljeyfpquhg"></path></g><path d="M345.55,206.17h0a1.57,1.57,0,0,1-1.58-1.58V186.3h3.16v18.29A1.58,1.58,0,0,1,345.55,206.17Z" style="fill: #90CAF9; transform-origin: 345.55px 196.235px;" id="el6qbsey72koy" class="animable"></path><g id="el6i2vj63d1zc"><path d="M345.55,206.17h0a1.57,1.57,0,0,1-1.58-1.58V186.3h3.16v18.29A1.58,1.58,0,0,1,345.55,206.17Z" style="fill: rgb(255, 255, 255); opacity: 0.8; transform-origin: 345.55px 196.235px;" class="animable" id="elrtufieova4"></path></g><path d="M344.27,193.93v10.66a1.28,1.28,0,0,0,1.28,1.28h0a1.27,1.27,0,0,0,1.27-1.28V193.93Z" style="fill: #90CAF9; transform-origin: 345.545px 199.9px;" id="elrrz21kf9uyd" class="animable"></path><path d="M347.1,186.58H344a.26.26,0,0,1-.26-.26h0a.26.26,0,0,1,.26-.26h3.11a.26.26,0,0,1,.26.26h0A.26.26,0,0,1,347.1,186.58Z" style="fill: #90CAF9; transform-origin: 345.555px 186.32px;" id="eluyge9vwznm" class="animable"></path><g id="elbkalkgpmwc"><path d="M347.1,186.58H344a.26.26,0,0,1-.26-.26h0a.26.26,0,0,1,.26-.26h3.11a.26.26,0,0,1,.26.26h0A.26.26,0,0,1,347.1,186.58Z" style="fill: rgb(255, 255, 255); opacity: 0.4; transform-origin: 345.555px 186.32px;" class="animable" id="elsysmp3jt9sb"></path></g><path d="M355.52,204.2l-2.36,4.1c-3.85,3.16-7-2.49-7-2.49l-2.64-2.1a2.51,2.51,0,0,1-.42-3.22l1.63-2.88a2.61,2.61,0,0,1,3.43-1.23l2.57,1.43a5.09,5.09,0,0,1,1.84,1.73Z" style="fill: rgb(255, 181, 115); transform-origin: 349.109px 202.702px;" id="eldhdbfy7nfd4" class="animable"></path><path d="M398,197.47c7.75,8.62-18.43,32.6-22.5,31.37-7.69-2.32-25-18.32-25-18.32l4.81-7.66S373,216.67,375,217c2.64.39,10.58-9.9,14.3-14.78A11.3,11.3,0,0,1,398,197.47Z" style="fill: #90CAF9; transform-origin: 374.963px 213.178px;" id="elxdoqik7ykl" class="animable"></path><g id="elgh93xi7h1df"><path d="M398,197.47c7.75,8.62-18.43,32.6-22.5,31.37-7.69-2.32-25-18.32-25-18.32l4.81-7.66S373,216.67,375,217c2.64.39,10.58-9.9,14.3-14.78A11.3,11.3,0,0,1,398,197.47Z" style="fill: rgb(255, 255, 255); opacity: 0.7; transform-origin: 374.963px 213.178px;" class="animable" id="elqjp947zom9"></path></g><path d="M359.83,165.42c-1,2.94-.6,9,3.57,7.13S361.53,160.36,359.83,165.42Z" style="fill: rgb(38, 50, 56); transform-origin: 362.106px 168.47px;" id="elez7t6fe0dmb" class="animable"></path><path d="M381.07,169.82a67,67,0,0,1,.06,10,11.85,11.85,0,0,1-2.62,6.31c-5.17,6.38-14.89,3.77-17.47-3.61a22.78,22.78,0,0,1-.73-2.6c-1.51-6.67-.85-15.84,5.41-19.09A10.52,10.52,0,0,1,381.07,169.82Z" style="fill: rgb(235, 179, 118); transform-origin: 370.458px 174.698px;" id="elkx4vse3vnx" class="animable"></path><path d="M378.33,171.79l.59,1.09a22.4,22.4,0,0,1,2.21,6.93,11.85,11.85,0,0,1-2.62,6.31c-5.17,6.38-14.89,3.77-17.47-3.61a22.78,22.78,0,0,1-.73-2.6s1.53,2.47,2.83,3.06c0,0,1.66-2.66,3.59-2.8,0,0,1.71-2.87,6-2.31A6.89,6.89,0,0,0,378.33,171.79Z" style="fill: rgb(38, 50, 56); transform-origin: 370.72px 180.761px;" id="elzbpgw86az2f" class="animable"></path><g id="els1pkur2cwr"><path d="M378.33,171.79l.59,1.09a22.4,22.4,0,0,1,2.21,6.93,11.85,11.85,0,0,1-2.62,6.31c-5.17,6.38-14.89,3.77-17.47-3.61a22.78,22.78,0,0,1-.73-2.6s1.53,2.47,2.83,3.06c0,0,1.66-2.66,3.59-2.8,0,0,1.71-2.87,6-2.31A6.89,6.89,0,0,0,378.33,171.79Z" style="fill: rgb(255, 255, 255); opacity: 0.5; transform-origin: 370.72px 180.761px;" class="animable" id="el95rzhdd0n2g"></path></g><path d="M384.54,161.22c.51-4.76-5.1-5.56-8.92-4a2.14,2.14,0,0,1-1.34.13l1.58,8.21c.44-.14.87-.29,1.25-.45,0,0-.56,7.09,3.07,10.11C387,171.54,389.5,163.8,384.54,161.22Z" style="fill: rgb(38, 50, 56); transform-origin: 380.711px 165.858px;" id="elwlxmcdz17i" class="animable"></path><path d="M384.63,175.84a7.11,7.11,0,0,1-3.13,4.52,3.45,3.45,0,0,1-.49.27h0c-2.11,0-2.36-6.8-2.38-7.15h0a3.47,3.47,0,0,1,2.39-1.74A3.28,3.28,0,0,1,384.63,175.84Z" style="fill: rgb(235, 179, 118); transform-origin: 381.686px 176.17px;" id="els27emkizr4i" class="animable"></path><path d="M369.77,173c.07.62-.21,1.15-.61,1.19s-.79-.43-.85-1.05.21-1.15.62-1.18S369.71,172.39,369.77,173Z" style="fill: rgb(38, 50, 56); transform-origin: 369.041px 173.076px;" id="elwurq8vh8eem" class="animable"></path><path d="M362.79,173.65c.06.61-.21,1.14-.62,1.18s-.78-.43-.84-1.05.21-1.14.61-1.18S362.73,173,362.79,173.65Z" style="fill: rgb(38, 50, 56); transform-origin: 362.06px 173.715px;" id="elxx4jbu8ol4q" class="animable"></path><path d="M365,173.75a21.28,21.28,0,0,1-2.48,5.36,3.7,3.7,0,0,0,3,.23Z" style="fill: rgb(213, 135, 69); transform-origin: 364.02px 176.652px;" id="elm1dute40hf" class="animable"></path><path d="M371.93,169.93a.37.37,0,0,1-.37,0,2.94,2.94,0,0,0-2.64,0,.36.36,0,1,1-.39-.61,3.64,3.64,0,0,1,3.34-.06.38.38,0,0,1,.18.49A.53.53,0,0,1,371.93,169.93Z" style="fill: rgb(38, 50, 56); transform-origin: 370.221px 169.436px;" id="elgacrwy5xbnw" class="animable"></path><path d="M358.83,170.21a.32.32,0,0,1-.12-.18.36.36,0,0,1,.24-.45,3.6,3.6,0,0,1,3.27.51.37.37,0,0,1,0,.52.36.36,0,0,1-.5,0,2.81,2.81,0,0,0-2.6-.38A.38.38,0,0,1,358.83,170.21Z" style="fill: rgb(38, 50, 56); transform-origin: 360.51px 170.052px;" id="elo8ajphfqw8" class="animable"></path><path d="M384.54,161.22c.28-1.86-.3-5.63-4.66-5.92s-8,1-8.42-1.86-3.92-2.26-4.33.26c0,0-8.92-2.33-7.19,4.4,0,0-4,.66-3.78,3.87s1.77,5.42,4.38,4.23,3-1.16,3.74.29,3.34.76,3.34.76-1.69.34-1.88-1a3.65,3.65,0,0,0,4,.07c2.46-1.22,3.35,1.46,3.35,1.46s1.39-.58.23-2.24c0,0,3.89,2.46,6.74,1.25S384.12,164,384.54,161.22Z" style="fill: rgb(38, 50, 56); transform-origin: 370.375px 159.66px;" id="eltirvaqs0by" class="animable"></path><path d="M368.63,183.05a.32.32,0,0,1-.3-.22.32.32,0,0,1,.2-.41,18.75,18.75,0,0,0,2.9-1.27.32.32,0,1,1,.32.56,18.65,18.65,0,0,1-3,1.32Z" style="fill: rgb(38, 50, 56); transform-origin: 370.113px 182.078px;" id="el2ld3rd77pu4" class="animable"></path></g><g id="freepik--character-1--inject-6" class="animable" style="transform-origin: 137.503px 286.431px;"><path d="M148.52,195.75c7.1,1.49,14.67,30,14.67,30l-6.35,6.84-11.33-20.8Z" style="fill: #90CAF9; transform-origin: 154.35px 214.17px;" id="el6z5fi4es04k" class="animable"></path><g id="elyakzl5o06zr"><path d="M145.5,211.8l.24.44,9.48,17.39,1.62,3,6.34-6.85s-7.56-28.51-14.66-30Z" style="fill: rgb(255, 255, 255); opacity: 0.7; transform-origin: 154.34px 214.205px;" class="animable" id="elgglaij2qfq"></path></g><g id="elr0vlvvc9ugj"><path d="M145.74,212.24l9.48,17.39c0-.29,0-.61,0-.95-.85-13.22-8.23-20.2-8.23-20.2A13,13,0,0,0,145.74,212.24Z" style="opacity: 0.1; transform-origin: 150.48px 219.055px;" class="animable" id="elqynhxtuk6cg"></path></g><path d="M95.68,268.52s21.77-5.79,48.15,2.69c0,0,4.24-55.26,3.74-62.85S106.84,203,106.84,203s-1,22.12-3.62,35.46S94.36,266,95.68,268.52Z" style="fill: #90CAF9; transform-origin: 121.555px 236.952px;" id="elt322wtsoj5c" class="animable"></path><g id="elc43fq0f0jbk"><path d="M95.68,268.52s21.77-5.79,48.15,2.69c0,0,4.24-55.26,3.74-62.85S106.84,203,106.84,203s-1,22.12-3.62,35.46S94.36,266,95.68,268.52Z" style="fill: rgb(255, 255, 255); opacity: 0.5; transform-origin: 121.555px 236.952px;" class="animable" id="eloxoe9a0hsad"></path></g><polygon points="156.55 412.16 149.45 414.17 147.76 403.12 146.85 397.21 153.95 395.2 155.16 403.12 156.55 412.16" style="fill: rgb(238, 193, 187); transform-origin: 151.7px 404.685px;" id="elmbte5zf4jv" class="animable"></polygon><polygon points="115.73 412.74 108.41 413.71 108.34 403.12 108.29 396.54 115.62 395.58 115.67 403.12 115.73 412.74" style="fill: rgb(238, 193, 187); transform-origin: 112.01px 404.645px;" id="elbieo2ju0n4a" class="animable"></polygon><g id="el2mzv8cvjlb5"><polygon points="115.62 395.58 115.67 403.12 108.34 403.12 108.29 396.54 115.62 395.58" style="opacity: 0.2; transform-origin: 111.98px 399.35px;" class="animable" id="elcgr6mio6rcj"></polygon></g><g id="elozszns0xw1"><polygon points="155.16 403.12 147.76 403.12 146.85 397.21 153.95 395.2 155.16 403.12" style="opacity: 0.2; transform-origin: 151.005px 399.16px;" class="animable" id="el66eg8ps98yh"></polygon></g><path d="M156.46,411.05l-8.06-.21a.65.65,0,0,0-.65.48l-1.69,6.49a1.06,1.06,0,0,0,1,1.34c2.91,0,7.11,0,10.77.07,4.28.12,7-.09,12,0,3,.08,4-2.94,2.72-3.25-5.73-1.42-9.48-1.14-14.36-4.34A3.49,3.49,0,0,0,156.46,411.05Z" style="fill: rgb(38, 50, 56); transform-origin: 159.559px 415.049px;" id="el7xsho51h1bj" class="animable"></path><path d="M157,412a.2.2,0,0,1,.1-.18c.34-.16,3.36-1.59,4.24-1.06a.55.55,0,0,1,.28.47,1,1,0,0,1-.36.84c-.84.69-2.94.34-4.12.08h0A.18.18,0,0,1,157,412Zm.73-.09c1.62.32,2.84.28,3.31-.11a.65.65,0,0,0,.23-.55.22.22,0,0,0-.11-.19l-.06,0C160.59,410.77,159,411.34,157.77,411.86Z" style="fill: #90CAF9; transform-origin: 159.311px 411.558px;" id="el68myhlc9hdx" class="animable"></path><path d="M157.11,412.06a.18.18,0,0,1-.07-.16,5,5,0,0,1,1.25-2.8,1.35,1.35,0,0,1,1-.27c.48.06.61.31.64.51.1.83-1.72,2.37-2.63,2.75a.29.29,0,0,1-.13,0S157.12,412.08,157.11,412.06Zm2.11-2.88a.92.92,0,0,0-.72.2,4.1,4.1,0,0,0-1.05,2.24c.93-.52,2.17-1.74,2.11-2.24a.21.21,0,0,0-.16-.16A.6.6,0,0,0,159.22,409.18Z" style="fill: #90CAF9; transform-origin: 158.487px 410.458px;" id="elq5nw6xq06y" class="animable"></path><path d="M115.44,411.05l-8.07-.21a.64.64,0,0,0-.64.48l-1.7,6.49a1.07,1.07,0,0,0,1,1.34c2.91,0,7.12,0,10.77.07,4.28.12,7-.09,12,0,3,.08,4-2.94,2.72-3.25-5.73-1.42-9.47-1.14-14.35-4.34A3.49,3.49,0,0,0,115.44,411.05Z" style="fill: rgb(38, 50, 56); transform-origin: 118.53px 415.049px;" id="elqoqerkav80e" class="animable"></path><path d="M116,412a.17.17,0,0,1,.1-.18c.34-.16,3.36-1.59,4.24-1.06a.54.54,0,0,1,.27.47,1,1,0,0,1-.36.84c-.83.69-2.94.34-4.12.08h0A.16.16,0,0,1,116,412Zm.72-.09c1.62.32,2.84.28,3.31-.11a.65.65,0,0,0,.23-.55.2.2,0,0,0-.1-.19l-.07,0C119.57,410.77,117.93,411.34,116.74,411.86Z" style="fill: #90CAF9; transform-origin: 118.305px 411.558px;" id="el5ikdh3y5siy" class="animable"></path><path d="M116.08,412.06a.15.15,0,0,1-.06-.16,5,5,0,0,1,1.25-2.8,1.33,1.33,0,0,1,1-.27c.47.06.6.31.63.51.11.83-1.72,2.37-2.62,2.75a.29.29,0,0,1-.13,0Zm2.12-2.88a.91.91,0,0,0-.72.2,4.11,4.11,0,0,0-1.06,2.24c.93-.52,2.18-1.74,2.11-2.24,0,0,0-.11-.15-.16Z" style="fill: #90CAF9; transform-origin: 117.46px 410.458px;" id="elv073tyyho4" class="animable"></path><path d="M100.63,251.8c-3.88,16.81,2.78,149.06,2.78,149.06h12.86l5.5-110.21L142,400.86l13.75-1c-9-85.38-16.93-136.35-16.93-136.35l0-6.44Z" style="fill: #90CAF9; transform-origin: 127.583px 326.33px;" id="elm10z9ryisn" class="animable"></path><path d="M107.56,189.53a162.35,162.35,0,0,1-.61,24.1c-.54,5.6-1.28,10.89-2.07,15.66-1.85,11.19-3.95,19.58-4.25,22.51l38.23,5.27c13.94-39,8.69-59.66,8.69-59.66l-8.76-5s-1.28-.34-1.94-.49a143.19,143.19,0,0,0-16.25-2.24c-1-.09-2.09-.16-3.11-.21C112.26,189.23,107.56,189.53,107.56,189.53Z" style="fill: rgb(38, 50, 56); transform-origin: 124.575px 223.223px;" id="elod83umdhp" class="animable"></path><path d="M121.94,189.5s8.77,6.92,11.41,6.89c1.85,0,4.53-3,4.53-3A7.83,7.83,0,0,1,135,191c-1.83-2.51-.77-5.56.72-8.35L128,172a51.35,51.35,0,0,1-1,7.75h0C126.16,183.91,124.6,188,121.94,189.5Z" style="fill: rgb(238, 193, 187); transform-origin: 129.91px 184.195px;" id="elta5yvp5xfys" class="animable"></path><g id="eloeopd3jn0wr"><path d="M127,179.74h0c.8,4.67,2.84,10.06,8,11.28-1.83-2.51-.77-5.56.72-8.35L128,172A51.35,51.35,0,0,1,127,179.74Z" style="opacity: 0.2; transform-origin: 131.36px 181.51px;" class="animable" id="elqqj3io5kb9g"></path></g><path d="M133.36,196.39s-2.14,1.94-4.58,3.82c-2.94-2-9.75-7.06-8.92-10.92.57-1.08,3.63-1.45,3.63-1.45S126.22,192.44,133.36,196.39Z" style="fill: rgb(38, 50, 56); transform-origin: 126.575px 194.025px;" id="el6l5jbi8vgwg" class="animable"></path><path d="M133.36,196.39a21,21,0,0,1,3.51,4.79c2.48-1.21,2.19-8.62,1.44-9.52a8.23,8.23,0,0,0-3.84-1.52A6.78,6.78,0,0,1,133.36,196.39Z" style="fill: rgb(38, 50, 56); transform-origin: 136.101px 195.66px;" id="elqfuadsc7dn" class="animable"></path><g id="elwqs2y9a49b"><g style="opacity: 0.2; transform-origin: 129.316px 194.51px;" class="animable" id="elfhn6x5w1x1h"><path d="M133.36,196.39s-2.14,1.94-4.58,3.82c-2.94-2-9.75-7.06-8.92-10.92.57-1.08,3.63-1.45,3.63-1.45S126.22,192.44,133.36,196.39Z" style="fill: rgb(255, 255, 255); transform-origin: 126.575px 194.025px;" id="elt9ie90uyig" class="animable"></path><path d="M133.36,196.39a21,21,0,0,1,3.51,4.79c2.48-1.21,2.19-8.62,1.44-9.52a8.23,8.23,0,0,0-3.84-1.52A6.78,6.78,0,0,1,133.36,196.39Z" style="fill: rgb(255, 255, 255); transform-origin: 136.101px 195.66px;" id="elx2fj940l3zi" class="animable"></path></g></g><path d="M119.86,189.29a163.48,163.48,0,0,1-3.74,28.25.16.16,0,0,0,0,0c-2.82,12.6-7.76,26.71-16.39,36.18,0,0-4,9.23-2.71,17.32,0,0-2.63-1.08-3.16-2.57s7.12-19.82,9-33.73,2.9-45.49,2.9-45.49a46.11,46.11,0,0,1,9.54-.37C116.66,189,118.2,189.1,119.86,189.29Z" style="fill: #90CAF9; transform-origin: 106.847px 229.911px;" id="elzjuryfkzo8d" class="animable"></path><g id="eludpm2kozx7o"><path d="M93.85,268.51c.53,1.49,3.16,2.57,3.16,2.57-1.31-8.09,2.71-17.32,2.71-17.32.55-.6,1.08-1.22,1.61-1.86,4.84-6,8.42-13.41,11.06-21.08a121.55,121.55,0,0,0,3.72-13.24.16.16,0,0,1,0,0c.11-.49.21-1,.32-1.45a165.94,165.94,0,0,0,3.41-26.47c0-.22,0-.33,0-.33-1.66-.19-3.2-.3-4.6-.37a46.11,46.11,0,0,0-9.54.37s-.25,7.34-.7,16.49c0,.14,0,.27,0,.41-.14,2.63-.29,5.39-.45,8.17h0c-.31,5.19-.68,10.42-1.11,14.87-.19,2-.4,3.91-.61,5.54C101,248.69,93.32,267,93.85,268.51Z" style="fill: rgb(255, 255, 255); opacity: 0.7; transform-origin: 106.832px 229.971px;" class="animable" id="el02pgiq2j1vux"></path></g><g id="elyejjz5m7it"><path d="M119.86,189.29a163.48,163.48,0,0,1-3.74,28.25.16.16,0,0,0,0,0l-5-20.16,5.34-.51-5.34-3.14,4.2-4.85C116.66,189,118.2,189.1,119.86,189.29Z" style="fill: rgb(255, 255, 255); opacity: 0.4; transform-origin: 115.49px 203.21px;" class="animable" id="elxt0ra0n0sq"></path></g><path d="M144.08,273.16l-1.37,1a450.81,450.81,0,0,0,1.18-49.36c0-1.36-.09-2.67-.14-3.92-1-23.86-4.72-28.2-5-28.46l3.46,1.18,6.27,2.16C150.37,216.11,144.08,273.16,144.08,273.16Z" style="fill: #90CAF9; transform-origin: 143.792px 233.29px;" id="el7tj353xyhc8" class="animable"></path><g id="eli295cicp25f"><path d="M144.08,273.16l-1.37,1a450.81,450.81,0,0,0,1.18-49.36c0-1.36-.09-2.67-.14-3.92-1-23.86-4.72-28.2-5-28.46l3.46,1.18,6.27,2.16C150.37,216.11,144.08,273.16,144.08,273.16Z" style="fill: rgb(255, 255, 255); opacity: 0.7; transform-origin: 143.792px 233.29px;" class="animable" id="eln67z2k0sjk"></path></g><g id="elhin7e1k03ns"><path d="M142.51,200.77l4,2.48s-1,11.67-2.72,17.62c-1-23.86-4.72-28.2-5-28.46l3.46,1.18a23.28,23.28,0,0,1,4.71,6.12Z" style="fill: rgb(255, 255, 255); opacity: 0.4; transform-origin: 142.875px 206.64px;" class="animable" id="elqb9t1iqyffm"></path></g><g id="elc697cdpneye"><path d="M106.84,206.53a20.62,20.62,0,0,1-2.29,7.83c.16-2.78.31-5.54.45-8.17A4.35,4.35,0,0,1,106.84,206.53Z" style="opacity: 0.2; transform-origin: 105.695px 210.274px;" class="animable" id="el7qwz4q6ceac"></path></g><g id="eltdap2s2garm"><path d="M126.08,314.1l-4.31-23.45.83-12.41S128.51,299.76,126.08,314.1Z" style="opacity: 0.2; transform-origin: 124.218px 296.17px;" class="animable" id="el8exk5c3vhl8"></path></g><path d="M159.81,202.79c-2.44-.16-2.57,2.84-1.44,3.94s4.87.32,4.81-1.36S162,202.94,159.81,202.79Z" style="fill: #90CAF9; transform-origin: 160.433px 205.012px;" id="elri1ff93492s" class="animable"></path><g id="el1e0rc65f32uh"><path d="M159.81,202.79c-2.44-.16-2.57,2.84-1.44,3.94s4.87.32,4.81-1.36S162,202.94,159.81,202.79Z" style="fill: rgb(255, 255, 255); opacity: 0.5; transform-origin: 160.433px 205.012px;" class="animable" id="el1220fpbdmxk"></path></g><path d="M157.32,205.13s-12.46,26.14-18.93,31.59h21.49l15.91-28.26Z" style="fill: rgb(255, 255, 255); transform-origin: 157.09px 220.925px;" id="el3f3zbgn8kcf" class="animable"></path><path d="M180.39,205.26l-20.06-1.76a3.16,3.16,0,0,0-3.12,1.78l-16.78,34.79a.83.83,0,0,0,.68,1.19l20,1.34a3.17,3.17,0,0,0,3.05-1.75l16.94-34.4A.83.83,0,0,0,180.39,205.26Z" style="fill: rgb(38, 50, 56); transform-origin: 160.765px 223.048px;" id="el79zcz1mnr2w" class="animable"></path><g id="elje9csjjbjl"><path d="M180.39,205.26l-20.06-1.76a3.16,3.16,0,0,0-3.12,1.78l-16.78,34.79a.83.83,0,0,0,.68,1.19l20,1.34a3.17,3.17,0,0,0,3.05-1.75l16.94-34.4A.83.83,0,0,0,180.39,205.26Z" style="fill: rgb(255, 255, 255); opacity: 0.2; transform-origin: 160.765px 223.048px;" class="animable" id="elyh0az37dm6a"></path></g><path d="M175.72,225.52l-1.95,4.24c-3.38,4.1-6.67,1-6.67,1l-2.56-.56c-.87-.19-1.12-1.19-.59-2.37l1.35-3a4,4,0,0,1,3.1-2.41l2.46.06a2.89,2.89,0,0,1,1.81.6Z" style="fill: rgb(238, 193, 187); transform-origin: 169.697px 227.152px;" id="elfjov2yadgy" class="animable"></path><path d="M159.72,225.33c0,.24.1.48.16.71l20.64,1.57s-1-10.17.37-17.31c1-5.06-1.26-5.48-1.26-5.48l-19.85-2h0C162,203.61,157.88,216.7,159.72,225.33Z" style="fill: rgb(255, 255, 255); transform-origin: 170.189px 215.215px;" id="eluqp3xtns15" class="animable"></path><g id="el4jo2jz6awqr"><path d="M103.43,229.24c.45.18.91.33,1.37.47a29,29,0,0,0,7.59,1.11,31.91,31.91,0,0,0,5.25-.29c18.64-2.84,19.2-6.66,19.2-6.66s-11.68-.78-17.22-4.12a10.07,10.07,0,0,1-3.18-3.66c-3.51-6-5.38-16.41-5.38-16.41s-1.44,1.27-3.41,3.29c-.81.82-1.71,1.77-2.63,2.81,0,.14,0,.27,0,.41-.14,2.63-.29,5.39-.45,8.17h0C104.23,219.56,103.86,224.79,103.43,229.24Z" style="opacity: 0.1; transform-origin: 120.135px 215.256px;" class="animable" id="el1fgc07634k1"></path></g><path d="M153.26,226.32a.57.57,0,0,1-.47-.25l-9.06-13.59a.56.56,0,0,1,.15-.78.57.57,0,0,1,.78.15l9.07,13.6a.55.55,0,0,1-.16.77A.5.5,0,0,1,153.26,226.32Z" style="fill: rgb(38, 50, 56); transform-origin: 148.728px 218.963px;" id="elkrkhmiim2n" class="animable"></path><path d="M138,217.75l-.21,4.73c1.56,4.72,7.28,1.67,7.28,1.67l3.35-.36a2.5,2.5,0,0,0,2.08-2.49l.17-3.3a2.61,2.61,0,0,0-2.23-2.88l-2.93-.17a5.14,5.14,0,0,0-2.48.47Z" style="fill: rgb(238, 193, 187); transform-origin: 144.238px 220.03px;" id="elm696o28rj4r" class="animable"></path><path d="M105.72,189.29c-11.15,3.12-1.92,37.4,2.16,38.55,7.75,2.16,30.91-2.08,30.91-2.08l.05-9s-22.3,2.19-24.18,1.35c-2.43-1.09-3.61-14-4.14-20.14A11.3,11.3,0,0,0,105.72,189.29Z" style="fill: #90CAF9; transform-origin: 119.624px 208.872px;" id="eloabd7kvgq1d" class="animable"></path><g id="elte6u4lw9e9q"><path d="M105.72,189.29c-11.15,3.12-1.92,37.4,2.16,38.55,7.75,2.16,30.91-2.08,30.91-2.08l.05-9s-22.3,2.19-24.18,1.35c-2.43-1.09-3.61-14-4.14-20.14A11.3,11.3,0,0,0,105.72,189.29Z" style="fill: rgb(255, 255, 255); opacity: 0.7; transform-origin: 119.624px 208.872px;" class="animable" id="el3pnhxyfghkf"></path></g><polygon points="113.21 257.67 134.68 260.49 135 257.34 113.52 254.63 113.21 257.67" style="fill: rgb(38, 50, 56); transform-origin: 124.105px 257.56px;" id="el3y7z5ymk0oj" class="animable"></polygon><polygon points="112.59 254.51 100.41 252.97 100.05 255.93 112.28 257.54 112.59 254.51" style="fill: rgb(38, 50, 56); transform-origin: 106.32px 255.255px;" id="elx4coiwsdtv" class="animable"></polygon><polygon points="135.93 257.45 135.6 260.62 138.85 261.04 138.85 257.82 135.93 257.45" style="fill: rgb(38, 50, 56); transform-origin: 137.225px 259.245px;" id="el4rdrojxa0zt" class="animable"></polygon><g id="elq64zfryoj3b"><g style="opacity: 0.2; transform-origin: 119.45px 257.005px;" class="animable" id="el9yqjfzgjvi"><polygon points="113.21 257.67 134.68 260.49 135 257.34 113.52 254.63 113.21 257.67" style="fill: rgb(255, 255, 255); transform-origin: 124.105px 257.56px;" id="elmkes64rg12q" class="animable"></polygon><polygon points="112.59 254.51 100.41 252.97 100.05 255.93 112.28 257.54 112.59 254.51" style="fill: rgb(255, 255, 255); transform-origin: 106.32px 255.255px;" id="el6k62gecvyv8" class="animable"></polygon><polygon points="135.93 257.45 135.6 260.62 138.85 261.04 138.85 257.82 135.93 257.45" style="fill: rgb(255, 255, 255); transform-origin: 137.225px 259.245px;" id="el56lpamz9cq4" class="animable"></polygon></g></g><path d="M128,260h0l-5.06-.67a.38.38,0,0,1-.33-.42c.16-1.29.32-2.75.33-3v-.09a.37.37,0,0,1,.42-.32h.07l4.91.61a.38.38,0,0,1,.33.41l-.24,3.12a.4.4,0,0,1-.14.27A.41.41,0,0,1,128,260Zm-4.65-1.37,4.31.57.18-2.38-4.23-.53c0,.28-.06.65-.12,1.17S123.4,258.33,123.36,258.62Z" style="fill: rgb(255, 255, 255); transform-origin: 125.64px 257.749px;" id="el06t1k3lhdtm9" class="animable"></path><path d="M149.13,167c.29,2.85-1.31,8.25-4.68,5.7S148.63,162.13,149.13,167Z" style="fill: rgb(38, 50, 56); transform-origin: 146.375px 169.413px;" id="elqm2ukjt1jm" class="animable"></path><path d="M129.09,166.67c-1.83,6.8-3.25,10.69-1,15.21,3.36,6.8,12.65,6.44,16.49.3,3.45-5.52,5.86-15.71.19-20.49A9.71,9.71,0,0,0,129.09,166.67Z" style="fill: rgb(238, 193, 187); transform-origin: 137.548px 173.135px;" id="el6p0rmfc2dyu" class="animable"></path><path d="M126.31,158.84l7.83.18-.1,4.49c-.14-.09-.3-.18-.43-.28s-.94,6.51-4.83,8.5C124,167.52,122.93,161.11,126.31,158.84Z" style="fill: rgb(38, 50, 56); transform-origin: 129.241px 165.285px;" id="elek3ha15n3up" class="animable"></path><path d="M124.65,171.36a6.63,6.63,0,0,0,1.9,4.73c1.65,1.65,3.65.45,4.16-1.71.47-1.95.17-5.16-2-6A3,3,0,0,0,124.65,171.36Z" style="fill: rgb(238, 193, 187); transform-origin: 127.773px 172.523px;" id="elc6rms6sqcli" class="animable"></path><path d="M138.62,171.84c-.19.54,0,1.07.31,1.19s.8-.23,1-.77,0-1.08-.32-1.19S138.8,171.3,138.62,171.84Z" style="fill: rgb(38, 50, 56); transform-origin: 139.277px 172.051px;" id="eludek8o0sny8" class="animable"></path><path d="M144.78,173.84c-.18.54,0,1.08.32,1.19s.79-.23,1-.77,0-1.08-.31-1.19S145,173.3,144.78,173.84Z" style="fill: rgb(38, 50, 56); transform-origin: 145.447px 174.05px;" id="el47rxksi56g7" class="animable"></path><path d="M142.73,173.47a19.91,19.91,0,0,0,1.14,5.34,3.38,3.38,0,0,1-2.73-.4Z" style="fill: rgb(212, 130, 125); transform-origin: 142.505px 176.203px;" id="elxe8tl474pg" class="animable"></path><path d="M137.52,179.53a4.32,4.32,0,0,0,.69.28.16.16,0,0,0,.21-.11.17.17,0,0,0-.1-.21,4.49,4.49,0,0,1-3-2.82.17.17,0,0,0-.21-.12.16.16,0,0,0-.12.2A4.7,4.7,0,0,0,137.52,179.53Z" style="fill: rgb(38, 50, 56); transform-origin: 136.706px 178.182px;" id="el4nx2tcxq70x" class="animable"></path><path d="M137.38,169.24a.35.35,0,0,0,.34,0,2.69,2.69,0,0,1,2.41-.39.34.34,0,0,0,.44-.19.34.34,0,0,0-.18-.44,3.39,3.39,0,0,0-3,.47.35.35,0,0,0-.09.47A.33.33,0,0,0,137.38,169.24Z" style="fill: rgb(38, 50, 56); transform-origin: 138.92px 168.672px;" id="elrv2m87im6u" class="animable"></path><path d="M148.14,172.59a.34.34,0,0,0,.2,0,.34.34,0,0,0,.29-.37,3.34,3.34,0,0,0-1.7-2.55.35.35,0,0,0-.45.17.33.33,0,0,0,.15.44,2.61,2.61,0,0,1,1.33,2A.32.32,0,0,0,148.14,172.59Z" style="fill: rgb(38, 50, 56); transform-origin: 147.539px 171.124px;" id="ellzxghcrmt6l" class="animable"></path><path d="M131.08,164.75a2.7,2.7,0,0,0,.45.36,3.13,3.13,0,0,0,3,.33c2-.82,3-6.3,8.33-3.11a3.22,3.22,0,0,1,3.23,1.39c1.31,1.84-.11,8.14,3,7.46s2.63-1.64,2.63-1.64-.89.48-1.37,0a2.86,2.86,0,0,0,1.05-3.11s-.8.82-1.28.61a12.82,12.82,0,0,0-.32-7.69c-1.45-4.51-12.3-4.27-12.3-4.27s-1.2-2.36-6.18-1.11-7.6,7-7,9.58" style="fill: rgb(38, 50, 56); transform-origin: 137.991px 162.418px;" id="el05p8sze899s5" class="animable"></path></g><g id="freepik--character-2--inject-6" class="animable" style="transform-origin: 187.638px 315.019px;"><polygon points="130.53 272.91 134.47 272.91 145.45 337.32 141.51 337.32 130.53 272.91" style="fill: rgb(38, 50, 56); transform-origin: 137.99px 305.115px;" id="el47tfm76huw7" class="animable"></polygon><polygon points="145.16 272.91 149.11 272.91 160.08 337.32 156.14 337.32 145.16 272.91" style="fill: rgb(38, 50, 56); transform-origin: 152.62px 305.115px;" id="elytecpn4a0ea" class="animable"></polygon><polygon points="159.8 272.91 163.74 272.91 174.71 337.32 170.77 337.32 159.8 272.91" style="fill: rgb(38, 50, 56); transform-origin: 167.255px 305.115px;" id="elvibzp0tjn7l" class="animable"></polygon><g id="elfzzz8g0or8d"><polygon points="130.53 272.91 134.47 272.91 145.45 337.32 141.51 337.32 130.53 272.91" style="fill: rgb(255, 255, 255); isolation: isolate; opacity: 0.4; transform-origin: 137.99px 305.115px;" class="animable" id="elir3nsa18bg8"></polygon></g><g id="eloe4g84ehiuc"><polygon points="145.16 272.91 149.11 272.91 160.08 337.32 156.14 337.32 145.16 272.91" style="fill: rgb(255, 255, 255); isolation: isolate; opacity: 0.4; transform-origin: 152.62px 305.115px;" class="animable" id="elopqa10euu7i"></polygon></g><g id="elvjfdxmn9dub"><polygon points="159.8 272.91 163.74 272.91 174.71 337.32 170.77 337.32 159.8 272.91" style="fill: rgb(255, 255, 255); isolation: isolate; opacity: 0.4; transform-origin: 167.255px 305.115px;" class="animable" id="el4arsk9yp742"></polygon></g><polygon points="164.22 338.99 164.55 353.23 166.05 417.64 171 417.64 172.49 353.23 172.81 338.99 164.22 338.99" style="fill: rgb(38, 50, 56); transform-origin: 168.515px 378.315px;" id="elbx5d4azmj1u" class="animable"></polygon><g id="el8pgehsnx7t4"><polygon points="164.22 338.99 164.55 353.23 166.05 417.64 171 417.64 172.49 353.23 172.81 338.99 164.22 338.99" style="fill: rgb(255, 255, 255); isolation: isolate; opacity: 0.4; transform-origin: 168.515px 378.315px;" class="animable" id="elrwie6rtm56s"></polygon></g><g id="elzs76ikq3phl"><polygon points="164.22 338.99 164.55 353.62 172.49 353.62 172.81 338.99 164.22 338.99" style="isolation: isolate; opacity: 0.2; transform-origin: 168.515px 346.305px;" class="animable" id="elc6y0xgzg4ie"></polygon></g><polygon points="137.35 417.42 141.92 340 149.39 340 142.99 417.42 137.35 417.42" style="fill: rgb(38, 50, 56); transform-origin: 143.37px 378.71px;" id="elubu4s9bifej" class="animable"></polygon><g id="elhmlma2em4qs"><polygon points="143.01 417.42 137.36 417.42 141.51 346.95 141.92 339.9 149.39 339.9 148.81 346.95 143.01 417.42" style="fill: rgb(255, 255, 255); isolation: isolate; opacity: 0.4; transform-origin: 143.375px 378.66px;" class="animable" id="elpxts17eoekq"></polygon></g><g id="eldij74ywsq6s"><polygon points="149.39 339.9 148.81 347.22 141.51 347.22 141.92 339.9 149.39 339.9" style="isolation: isolate; opacity: 0.2; transform-origin: 145.45px 343.56px;" class="animable" id="ely4pkv2uznz"></polygon></g><polygon points="194.05 417.42 187.65 340 195.12 340 199.69 417.42 194.05 417.42" style="fill: rgb(38, 50, 56); transform-origin: 193.67px 378.71px;" id="elpspb8t452xc" class="animable"></polygon><g id="el75smt0qrwna"><polygon points="194.03 417.42 188.22 346.95 187.65 339.9 195.12 339.9 195.53 346.95 199.68 417.42 194.03 417.42" style="fill: rgb(255, 255, 255); isolation: isolate; opacity: 0.4; transform-origin: 193.665px 378.66px;" class="animable" id="eloh7anoeoup"></polygon></g><g id="eln1jy0g9xz4"><polygon points="187.65 339.9 188.22 347.22 195.53 347.22 195.12 339.9 187.65 339.9" style="isolation: isolate; opacity: 0.2; transform-origin: 191.59px 343.56px;" class="animable" id="elvmolsjttro"></polygon></g><g id="elah0egj5oi7"><path d="M137.92,332h61.2a0,0,0,0,1,0,0v6.12a4.57,4.57,0,0,1-4.57,4.57H142.49a4.57,4.57,0,0,1-4.57-4.57V332A0,0,0,0,1,137.92,332Z" style="fill: #90CAF9; transform-origin: 168.52px 337.345px; transform: rotate(180deg);" class="animable" id="el0jbv44v7bxqr"></path></g><path d="M137.34,280.35c6.35-3.84,15.16-3.84,23.58,0,4.25,1.87,9.29,2.4,11.52-.29h0c3.79-4-2.87-15.67-15.65-19.38-9.15-2.62-18.21-2.62-25.94,0-10.78,3.71-11.12,15.42-5.18,19.38h0C129.35,282.75,134.09,282.22,137.34,280.35Z" style="fill: #90CAF9; transform-origin: 147.658px 270.316px;" id="elyrpao8jqznl" class="animable"></path><g id="elx05am7oqm7h"><path d="M137.92,332h61.2a0,0,0,0,1,0,0v6.12a4.57,4.57,0,0,1-4.57,4.57H142.49a4.57,4.57,0,0,1-4.57-4.57V332A0,0,0,0,1,137.92,332Z" style="opacity: 0.3; transform-origin: 168.52px 337.345px; transform: rotate(180deg);" class="animable" id="elr2v30heyzdd"></path></g><g id="el1zjddui85ve"><path d="M137.34,280.35c6.35-3.84,15.16-3.84,23.58,0,4.25,1.87,9.29,2.4,11.52-.29h0c3.79-4-2.87-15.67-15.65-19.38-9.15-2.62-18.21-2.62-25.94,0-10.78,3.71-11.12,15.42-5.18,19.38h0C129.35,282.75,134.09,282.22,137.34,280.35Z" style="opacity: 0.3; transform-origin: 147.658px 270.316px;" class="animable" id="elp9skcxk6scg"></path></g><g id="elnife3lmdqe"><rect x="134.98" y="337.32" width="67.07" height="5.35" rx="1.84" style="fill: rgb(38, 50, 56); transform-origin: 168.515px 339.995px; transform: rotate(180deg);" class="animable" id="ellw5v27yg8re"></rect></g><g id="elmozwmutyp4m"><rect x="134.98" y="337.32" width="67.07" height="5.35" rx="1.84" style="fill: rgb(255, 255, 255); isolation: isolate; opacity: 0.6; transform-origin: 168.515px 339.995px; transform: rotate(180deg);" class="animable" id="ellbstnyvub6"></rect></g><path d="M222.52,228c5.81,6.4,12.17,19.39-5.62,23.47s-15.29-15-10.81-22.27S218.82,223.93,222.52,228Z" style="fill: rgb(38, 50, 56); transform-origin: 215.699px 238.189px;" id="elnasv10pr5s" class="animable"></path><path d="M234.71,284.79l8.46-4.78-5.31-6.63s-6.38,2.51-6.36,8.17Z" style="fill: rgb(206, 122, 99); transform-origin: 237.335px 279.085px;" id="el5nptm4bsug6" class="animable"></path><polygon points="246.88 274.18 241.75 270.19 237.86 273.38 243.17 280.01 246.88 274.18" style="fill: rgb(206, 122, 99); transform-origin: 242.37px 275.1px;" id="el3bwfkzju6ro" class="animable"></polygon><path d="M209.68,261.77c3.76,2.59,6.06,22.09,8.4,22.12S232,278.41,232,278.41l3.59,7.51s-17.52,11-21.76,10.32-11-18.57-11-18.57Z" style="fill: #90CAF9; transform-origin: 219.21px 279.02px;" id="elodk2v6278cl" class="animable"></path><g id="ello33arz6crq"><path d="M235.59,285.92s-17.52,11-21.76,10.32c-1.36-.22-3-2.16-4.53-4.71a99.67,99.67,0,0,1-6.51-13.86l2.7-6.22,4.2-9.68c3.75,2.6,6.05,22.09,8.39,22.12S232,278.41,232,278.41Z" style="fill: rgb(255, 255, 255); opacity: 0.6; transform-origin: 219.19px 279.02px;" class="animable" id="el4m9xoo9jp6r"></path></g><g id="ela7kd6iqkcn"><path d="M209.42,269.2s2.64,12.31-.12,22.33a99.67,99.67,0,0,1-6.51-13.86l2.7-6.22A13.47,13.47,0,0,1,209.42,269.2Z" style="opacity: 0.2; transform-origin: 206.674px 280.365px;" class="animable" id="elz55os1bcocb"></path></g><path d="M205.63,257.82s7,10.86-4.6,45.61c-1.36,4.08-.26,16.68-.26,16.68l-21-8.22S184.35,265.7,205.63,257.82Z" style="fill: #90CAF9; transform-origin: 193.747px 288.965px;" id="elk1riametwin" class="animable"></path><g id="ela5yd1c8sl2"><path d="M205.63,257.82s7,10.86-4.6,45.61c-1.36,4.08-.26,16.68-.26,16.68l-21-8.22S184.35,265.7,205.63,257.82Z" style="fill: rgb(255, 255, 255); opacity: 0.7; transform-origin: 193.747px 288.965px;" class="animable" id="elxyhjz5df59s"></path></g><g id="elj0072xr2s3"><path d="M205.63,257.82s7,10.86-4.6,45.61c-1.36,4.08-.26,16.68-.26,16.68l-21-8.22S184.35,265.7,205.63,257.82Z" style="opacity: 0.4; transform-origin: 193.747px 288.965px;" class="animable" id="elhqlncreg53"></path></g><path d="M205.63,257.82s4.91,3.58,5.18,5.77c.72,5.84-9.92,40.64-9.92,40.64S205.75,276.82,205.63,257.82Z" style="fill: #90CAF9; transform-origin: 205.867px 281.025px;" id="eltore25zrmu" class="animable"></path><g id="el7vfndry7ai7"><path d="M210.81,263.59c.21,1.73-.57,6-1.76,11.08-.56,2.39-1.21,5-1.89,7.6h0c-2.75,10.46-6.06,21.35-6.25,21.94.08-.46,1.52-8.66,2.78-19.06,0,0,0,0,0-.07a1,1,0,0,0,0-.24c.07-.49.13-1,.19-1.47.31-2.67.61-5.47.87-8.3.54-5.88.89-11.9.86-17.25,0,0,.47.35,1.14.89C208.24,259.91,210.63,262.08,210.81,263.59Z" style="fill: rgb(255, 255, 255); opacity: 0.7; transform-origin: 205.877px 281.015px;" class="animable" id="el8v7gj5gb34a"></path></g><path d="M205.21,256.8a10,10,0,0,1,3.09,6.36l-1.71,1.37,1.53,4.89s-2.18,10.36-4.44,15.79C203.68,285.21,205.64,263.82,205.21,256.8Z" style="fill: #90CAF9; transform-origin: 205.99px 271.005px;" id="elx1je6yu91w" class="animable"></path><g id="el9comv5vfwxf"><path d="M208.29,263.16l-1.71,1.38,1.54,4.88s-.5,2.38-1.26,5.46c-.67,2.61-1.51,5.72-2.42,8.31-.25.71-.5,1.39-.76,2v-.05s0,0,0-.07a1,1,0,0,0,0-.24c0-.3.07-.8.13-1.44.16-1.83.41-4.87.66-8.31.47-6.54.93-14.51.7-18.29a8.64,8.64,0,0,1,1.57,1.91A10.82,10.82,0,0,1,208.29,263.16Z" style="fill: rgb(255, 255, 255); opacity: 0.6; transform-origin: 205.985px 270.99px;" class="animable" id="el75w3noy8e32"></path></g><path d="M236.1,364.59c-4.31,23.74-6.73,44.05-6.73,44.05l-5.68.72c-.69-10.81-.38-27.44.18-42.58.69-18.92,1.77-35.51,1.77-35.51-5.77,0-11.5.07-16.94.17-19.59.36-35.34,1.2-35.34,1.2l17.72-34.52,2.93,9.74s46.65,5.81,51.15,18.21C246.44,329.58,239.77,344.3,236.1,364.59Z" style="fill: rgb(228, 137, 123); transform-origin: 209.34px 353.74px;" id="ellpn7lak1v8l" class="animable"></path><path d="M234,408.66a10.61,10.61,0,0,1-2.77-.53l-.08-.05h0l0,0a.22.22,0,0,1,0-.16c0-.08.39-1.87,1.33-2.43a1.16,1.16,0,0,1,1-.1c.36.11.56.3.58.56s-.4.81-.92,1.2a3,3,0,0,1,1.59,0,.79.79,0,0,1,.46.45.71.71,0,0,1-.07.82A1.42,1.42,0,0,1,234,408.66ZM232,407.9c1.13.3,2.49.51,2.79.18.06-.07.06-.2,0-.37a.38.38,0,0,0-.24-.22A4.71,4.71,0,0,0,232,407.9Zm1.08-2.19a.79.79,0,0,0-.38.11,3.16,3.16,0,0,0-1,1.71c1-.56,2-1.26,1.92-1.58,0-.1-.2-.17-.28-.2A1.18,1.18,0,0,0,233,405.71Z" style="fill: rgb(87, 122, 250); transform-origin: 233.212px 407.005px;" id="elnbu4ie8l5k8" class="animable"></path><g id="elijzws0hnvlr"><path d="M223.87,366.78c.69-18.92,1.77-35.51,1.77-35.51-5.77,0-11.5.07-16.94.17l-3.79-13.95,19.34-1.78s10.4,5.53,10.23,12.87C234.36,333.66,227.86,354.47,223.87,366.78Z" style="isolation: isolate; opacity: 0.2; transform-origin: 219.696px 341.245px;" class="animable" id="elepklrq51n88"></path></g><path d="M187.52,309.46a26.73,26.73,0,0,0,3.14-12.66l-26.72-7.57s-15.61,34-5.34,44.4c2.28,2.32,6.75,3.36,11.31,3.32,0,0,12.27,1.39,36.39-2,0,0-7.83,42.85-9.94,67.11l4.53.57S228,334.27,227.77,326,217.37,316.12,187.52,309.46Z" style="fill: rgb(228, 137, 123); transform-origin: 191.436px 345.93px;" id="el0pfqly4xem0r" class="animable"></path><path d="M209,416.1a9.3,9.3,0,0,0-2.95-1.6h0s-3.21-3.19-4.75-12.78l-4.21-1.09a3.57,3.57,0,0,0-3.82,1.49,2,2,0,0,0-.27.55,27.26,27.26,0,0,0-.45,3.12,87.23,87.23,0,0,0-.06,10.53h.76l.31-6.61c.11-2.25,1.82.38,2.32,2.8s1.53,5,6.45,5.11C208.08,417.73,210.46,417.51,209,416.1Z" style="fill: rgb(38, 50, 56); transform-origin: 200.89px 409.086px;" id="elkskatah1sno" class="animable"></path><path d="M236.63,416.1a9.3,9.3,0,0,0-2.95-1.6h0s-3.21-3.19-4.76-12.78l-4.2-1.09a3.57,3.57,0,0,0-3.82,1.49,2,2,0,0,0-.27.55,23.45,23.45,0,0,0-.45,3.12,87.23,87.23,0,0,0-.06,10.53h.76l.3-6.61c.11-2.25,1.83.38,2.32,2.8s1.54,5,6.46,5.11C235.69,417.73,238.08,417.51,236.63,416.1Z" style="fill: rgb(38, 50, 56); transform-origin: 228.517px 409.086px;" id="el0cqgqbmv3jto" class="animable"></path><path d="M196.49,400.54c2,1.09,3.49,11.42,7.71,11,0,0-2.46-8.86-2.13-12Z" style="fill: rgb(228, 137, 123); transform-origin: 200.345px 405.546px;" id="el0iobevl2b5sh" class="animable"></path><path d="M224.25,400.55c2.52.61,4.44,10.61,7.56,11,0,0-2.27-7.46-1.17-13.93a7.49,7.49,0,0,0-4.13,0A3.84,3.84,0,0,0,224.25,400.55Z" style="fill: rgb(228, 137, 123); transform-origin: 228.03px 404.44px;" id="elkk39xd86ua" class="animable"></path><path d="M202.56,336.73s-4.18-22.65,29.91-19.92a183.76,183.76,0,0,0-37.76-9.71l-3.63-9-27.14-8.89s-16.11,33.2-6.58,44.81S202.56,336.73,202.56,336.73Z" style="fill: rgb(38, 50, 56); transform-origin: 193.408px 314.6px;" id="el18v0htovgvmh" class="animable"></path><path d="M208,274.91c-3.38,6.92-16,21.66-16,21.66l-29.48-7.13c5.45-6.39,10.84-20.69,17.72-39a6.94,6.94,0,0,1,10.12-3.73c1,.61,2.08,1.27,3.15,2a95.05,95.05,0,0,1,10.85,8c1.1,1,2.22,2,3.27,3.06C211.38,263.43,210.26,270.21,208,274.91Z" style="fill: #90CAF9; transform-origin: 186.299px 271.152px;" id="el013mei4ro8daq" class="animable"></path><path d="M206.18,239.92l.12.64,1.74,9.25h0l-.06.05h0a8.85,8.85,0,0,0-3.42,3.3c-.62,1.3-.47,2.83,1.08,4.66,0,0,.65,1.88-4.06,2.76-3-8.74-6.79-10.76-6.79-10.76C199.18,249.58,203.92,243.48,206.18,239.92Z" style="fill: rgb(206, 122, 99); transform-origin: 201.415px 250.25px;" id="elh7z7fd8yavi" class="animable"></path><g id="el580spmjno7m"><path d="M206.3,240.56l1.74,9.25a.13.13,0,0,0-.06.05h0a8.85,8.85,0,0,0-3.42,3.3C203.53,250.05,202.91,244,206.3,240.56Z" style="opacity: 0.2; transform-origin: 205.892px 246.86px;" class="animable" id="elhhrayrd75lu"></path></g><path d="M200.74,258.62c-2.56-1.38-5.86,1.58-5.86,1.58s-2.66-8-2.38-12.1a27.6,27.6,0,0,0,3,.21S200.37,256.29,200.74,258.62Z" style="fill: #90CAF9; transform-origin: 196.61px 254.15px;" id="elwubrl0bk6cl" class="animable"></path><path d="M203.63,260s1.19.31,1.58,3.89a9.06,9.06,0,0,0,.24-8.55,2.61,2.61,0,0,0-1.23-1,2.74,2.74,0,0,0,.3,1.73C205.14,257.44,203.63,260,203.63,260Z" style="fill: #90CAF9; transform-origin: 205.018px 259.115px;" id="el4yfpm25pkex" class="animable"></path><g id="elqlwrp4lqjk"><path d="M200.74,258.62c-2.56-1.38-5.86,1.58-5.86,1.58s-2.66-8-2.38-12.1a27.6,27.6,0,0,0,3,.21S200.37,256.29,200.74,258.62Z" style="opacity: 0.2; transform-origin: 196.61px 254.15px;" class="animable" id="elt1m5ryin44"></path></g><g id="elewdlmrlbe7"><path d="M203.63,260s1.19.31,1.58,3.89a9.06,9.06,0,0,0,.24-8.55,2.61,2.61,0,0,0-1.23-1,2.74,2.74,0,0,0,.3,1.73C205.14,257.44,203.63,260,203.63,260Z" style="opacity: 0.2; transform-origin: 205.018px 259.115px;" class="animable" id="el5fvxndwet45"></path></g><path d="M211.93,232.88c-5,5.05-7.27,7.07-7.78,12.27-.77,7.82,6.1,13.13,12.45,9.74,5.7-3,13-10.79,10.81-18A9.13,9.13,0,0,0,211.93,232.88Z" style="fill: rgb(206, 122, 99); transform-origin: 215.949px 242.977px;" id="ely8eagkys7s" class="animable"></path><path d="M229.3,233.37c2.24,4.71,1.18,13.66-3,8.29-1.9,1-3.74-2.47-4.06-5.51-1.2,1.09-5.17.2-6-3.39,0,2.34-4.69,5-6.13,2.91s-5.1-6,3.06-9.37S226.91,228.34,229.3,233.37Z" style="fill: rgb(38, 50, 56); transform-origin: 219.242px 234.288px;" id="elfwggczkpx1o" class="animable"></path><path d="M220.83,246.57c-.44.41-.6,1-.36,1.28s.78.21,1.22-.2.61-1,.37-1.27S221.27,246.17,220.83,246.57Z" style="fill: rgb(38, 50, 56); transform-origin: 221.264px 247.117px;" id="elq77o5y5j6p" class="animable"></path><path d="M221.93,246.27l1.18.81S221.84,247.28,221.93,246.27Z" style="fill: rgb(38, 50, 56); transform-origin: 222.518px 246.683px;" id="eluef7kagjyu" class="animable"></path><path d="M218.45,245.7a17.57,17.57,0,0,0-1.52,4.21c-1-.11-1.59-1.36-1.59-1.36Z" style="fill: rgb(186, 77, 60); transform-origin: 216.895px 247.805px;" id="el6whaoc8xc8v" class="animable"></path><path d="M211.69,244.52a5.47,5.47,0,0,0-.65-.74.16.16,0,0,0-.24,0,.2.2,0,0,0,0,.26,5,5,0,0,1,1.53,4,.19.19,0,0,0,.14.21.18.18,0,0,0,.19-.16A5.23,5.23,0,0,0,211.69,244.52Z" style="fill: rgb(38, 50, 56); transform-origin: 211.718px 245.988px;" id="el0wizbzkuy8yk" class="animable"></path><path d="M206.11,234.94a5.72,5.72,0,0,0,.15,4.37c.84,1.74,2.78,1.17,3.81-.53.94-1.53,1.62-4.28.17-5.45S206.78,233.13,206.11,234.94Z" style="fill: rgb(206, 122, 99); transform-origin: 208.413px 236.594px;" id="eloyyfqhkb908" class="animable"></path><path d="M217.23,239.06a.32.32,0,0,0,.18.2,2.57,2.57,0,0,1,1.56,1.86.32.32,0,0,0,.38.28.38.38,0,0,0,.29-.42,3.18,3.18,0,0,0-1.94-2.38.35.35,0,0,0-.45.2A.34.34,0,0,0,217.23,239.06Z" style="fill: rgb(38, 50, 56); transform-origin: 218.428px 239.992px;" id="elnxl285p78wa" class="animable"></path><path d="M225.63,246.28a.33.33,0,0,0,.62-.07,3.69,3.69,0,0,0-.36-3.23.32.32,0,0,0-.47,0,.37.37,0,0,0-.07.5,2.93,2.93,0,0,1,.27,2.56A.34.34,0,0,0,225.63,246.28Z" style="fill: rgb(38, 50, 56); transform-origin: 225.875px 244.673px;" id="elg1xx9z8n" class="animable"></path><path d="M216.83,242.26l1.18.82S216.74,243.27,216.83,242.26Z" style="fill: rgb(38, 50, 56); transform-origin: 217.418px 242.677px;" id="eldl5650iq05" class="animable"></path><path d="M217.46,242.69a1.88,1.88,0,0,0-1.72-2,2,2,0,0,1,1.1,1.87Z" style="fill: rgb(38, 50, 56); transform-origin: 216.602px 241.69px;" id="elvzylucj7h2" class="animable"></path><polygon points="165.54 287.38 164.05 291.53 191.08 298.12 192.97 295.57 165.54 287.38" style="fill: rgb(38, 50, 56); transform-origin: 178.51px 292.75px;" id="el7ir9bdic4k" class="animable"></polygon><g id="elhuwnvxrlbdk"><polygon points="165.54 287.38 164.05 291.53 191.08 298.12 192.97 295.57 165.54 287.38" style="fill: rgb(255, 255, 255); opacity: 0.2; transform-origin: 178.51px 292.75px;" class="animable" id="elbzanzhhkegd"></polygon></g><path d="M185,296.78l-4.86-1.15a.43.43,0,0,1-.29-.58l1.25-2.94a.45.45,0,0,1,.53-.24l4.85,1.58a.44.44,0,0,1,.25.6l-1.25,2.5A.44.44,0,0,1,185,296.78Z" style="fill: rgb(255, 255, 255); transform-origin: 183.294px 294.321px;" id="elfkcb3hbg0pv" class="animable"></path><path d="M192.5,248.1s-.12,1.58-.61,4.32c-.09.5-.19,1.05-.31,1.63l0,.15c-.09.42-.18.86-.28,1.32-.05.23-.1.47-.16.71s-.09.42-.15.64c-.43,1.84-1,3.92-1.69,6.19-.15.48-.31,1-.48,1.48q-.71,2.16-1.6,4.49c-.85,2.19-1.83,4.48-2.95,6.84-.35.73-.71,1.47-1.09,2.21-.07.12-.13.24-.19.36-.23.45-.47.9-.71,1.35v0c-.08.17-.18.34-.27.51l-.13.25A94.41,94.41,0,0,1,173.7,293l-.9,1.13c-.3.39-.62.77-.94,1.16s-.77.93-1.17,1.39l-.79.91c-.67.77-1.37,1.53-2.09,2.29l-1.09,1.13s-.34.54-.88,1.51l-.39.71c-.21.38-.44.81-.68,1.28-.16.31-.33.63-.5,1l-.26.53c-.18.36-.35.74-.53,1.13s-.37.8-.55,1.22-.37.85-.55,1.29q-.42,1-.81,2.07c-.18.48-.35,1-.52,1.46-.34,1-.66,2-.94,3.06a14.39,14.39,0,0,1-1.74,0l-.75-.06c-2-.23-4.77-.87-6.37-2.7,0,0,1.56-11.11,10-25.15,0,0,5.55-11.75,10.77-22.69l1.68-3.5c.41-.86.81-1.71,1.21-2.53q.41-.83.78-1.62c.76-1.59,1.48-3.08,2.13-4.41.22-.45.43-.87.62-1.28l.57-1.16.51-1c.48-1,.87-1.73,1.13-2.23a6.21,6.21,0,0,1,1-1.43,5.68,5.68,0,0,1,4.17-1.65l.51,0a1.73,1.73,0,0,1,.32,0l.32,0,.41.07.36.08a8.84,8.84,0,0,1,1.14.35c.13.05.25.09.37.15a8.36,8.36,0,0,1,1.83,1.06,5.54,5.54,0,0,1,.8.71A5.15,5.15,0,0,1,192.5,248.1Z" style="fill: #90CAF9; transform-origin: 171.875px 280.575px;" id="el6h1zifnl6he" class="animable"></path><g id="el0ra8xqqbhkok"><path d="M192.5,248.1s-.12,1.58-.61,4.32c-.09.5-.19,1.05-.31,1.63l0,.15c-.09.42-.18.86-.28,1.32-.05.23-.1.47-.16.71s-.09.42-.15.64c-.43,1.84-1,3.92-1.69,6.19-.15.48-.31,1-.48,1.48q-.71,2.16-1.6,4.49c-.85,2.19-1.83,4.48-2.95,6.84-.35.73-.72,1.47-1.09,2.21-.07.12-.13.24-.19.36-.23.45-.47.9-.71,1.35v0a.06.06,0,0,0,0,0,1.27,1.27,0,0,0-.12.23c0,.08-.09.16-.14.24l-.13.25A94.41,94.41,0,0,1,173.7,293l-.9,1.13c-.3.39-.62.77-.94,1.16s-.77.93-1.17,1.39l-.79.91c-.67.77-1.37,1.53-2.09,2.29-.35.38-.71.75-1.08,1.13,0,0-.34.54-.89,1.51l-.39.71c-.21.38-.44.81-.68,1.28-.16.31-.33.63-.5,1l-.26.53-.53,1.13-.55,1.22c-.18.42-.37.85-.55,1.29-.27.67-.55,1.36-.81,2.07-.18.48-.35,1-.52,1.46-.34,1-.66,2-.94,3.06a14.39,14.39,0,0,1-1.74,0l-.75-.06c-2-.23-4.77-.87-6.37-2.7,0,0,1.56-11.11,10-25.15,0,0,5.55-11.75,10.77-22.69l1.68-3.5c.41-.86.81-1.71,1.21-2.53q.41-.83.78-1.62c.76-1.59,1.48-3.08,2.13-4.41.22-.45.43-.87.62-1.28l.57-1.16.51-1c.48-1,.86-1.73,1.12-2.23a6.32,6.32,0,0,1,1-1.43,5.68,5.68,0,0,1,4.17-1.65l.51,0a1.73,1.73,0,0,1,.32,0l.32,0,.41.07.36.08a8.84,8.84,0,0,1,1.14.35c.13.05.25.09.37.15a8.36,8.36,0,0,1,1.83,1.06c.19.15.37.3.54.46l.26.25A5.15,5.15,0,0,1,192.5,248.1Z" style="fill: rgb(255, 255, 255); opacity: 0.7; transform-origin: 171.875px 280.575px;" class="animable" id="eljcxubyyrhon"></path></g><path d="M191.44,247.12a2.53,2.53,0,0,1,2.87.58s0,13.43-12.21,32.38c0,0,4.79-9.09,4.6-22.93l3.81-2.6-2.83-4.15S189.62,247.78,191.44,247.12Z" style="fill: #90CAF9; transform-origin: 188.205px 263.491px;" id="elm3ac1azij1j" class="animable"></path><g id="eloubnhncnc4b"><path d="M194.31,247.7s0,9.49-7.24,23.76a97.2,97.2,0,0,1-4.9,8.52.45.45,0,0,1,.06-.12.11.11,0,0,1,0-.07,47.73,47.73,0,0,0,3.64-12.24,57.38,57.38,0,0,0,.79-10.4l3.82-2.6-2.83-4.15s1.94-2.63,3.77-3.28l.19-.06A2.47,2.47,0,0,1,194.31,247.7Z" style="fill: rgb(255, 255, 255); opacity: 0.6; transform-origin: 188.24px 263.439px;" class="animable" id="elwhkb8cf7ksf"></path></g><path d="M213.47,225.26s1.26-10.86-8.46-12.7c-9.24-1.76-12.25,10.87-9.93,20.27,2.47,10,.85,12.88.85,12.88s2.9.5,2.38-10.38,7.24-19.1,11.2-8.9Z" style="fill: rgb(38, 50, 56); transform-origin: 203.928px 229.054px;" id="elzwwhmxl7shl" class="animable"></path><path d="M238.23,266.77l2.07,3.11-1.87,1.29L236,268.12S236.89,266.43,238.23,266.77Z" style="fill: rgb(38, 50, 56); transform-origin: 238.15px 268.947px;" id="elon9rxbcvn1s" class="animable"></path><path d="M239.41,262.47l4.76,1.65-.59,2.18-4.57-1A2.71,2.71,0,0,1,239.41,262.47Z" style="fill: rgb(38, 50, 56); transform-origin: 241.475px 264.385px;" id="el21txsnc5isx" class="animable"></path><g id="elc9s3yf9qpjm"><path d="M238.23,266.77l2.07,3.11-1.87,1.29L236,268.12S236.89,266.43,238.23,266.77Z" style="fill: rgb(255, 255, 255); opacity: 0.05; transform-origin: 238.15px 268.947px;" class="animable" id="elfzeeaw801kj"></path></g><g id="elsmklbwj5whm"><path d="M239.41,262.47l4.76,1.65-.59,2.18-4.57-1A2.71,2.71,0,0,1,239.41,262.47Z" style="fill: rgb(255, 255, 255); opacity: 0.05; transform-origin: 241.475px 264.385px;" class="animable" id="el76rtzh7b34x"></path></g><polygon points="237.7 263.71 237.11 265.62 234.87 267.34 232.26 267.54 225.34 258.32 224.78 257.57 225.35 255.85 220 248.6 223.23 246.16 228.44 253.6 230.39 253.77 230.85 254.4 237.7 263.71" style="fill: #90CAF9; transform-origin: 228.85px 256.85px;" id="el6zrpcr1eflc" class="animable"></polygon><g id="elc4uihjf739n"><polygon points="237.7 263.71 237.11 265.62 234.87 267.34 232.26 267.54 225.34 258.32 224.78 257.57 225.35 255.85 220 248.6 223.23 246.16 228.44 253.6 230.39 253.77 230.85 254.4 237.7 263.71" style="fill: rgb(255, 255, 255); opacity: 0.5; transform-origin: 228.85px 256.85px;" class="animable" id="elnriephwqr"></polygon></g><polygon points="230.85 254.4 225.34 258.32 224.78 257.57 225.35 255.85 220 248.6 223.23 246.16 228.44 253.6 230.39 253.77 230.85 254.4" style="fill: rgb(38, 50, 56); transform-origin: 225.425px 252.24px;" id="elzmc0jlql6xe" class="animable"></polygon><polygon points="236.77 267.18 238.59 266.89 239.48 265.61 238.73 262.94 236.77 267.18" style="fill: rgb(38, 50, 56); transform-origin: 238.125px 265.06px;" id="eltrn85cdx7m" class="animable"></polygon><g id="el5ejokx80erl"><polygon points="230.85 254.4 225.34 258.32 224.78 257.57 225.35 255.85 220 248.6 223.23 246.16 228.44 253.6 230.39 253.77 230.85 254.4" style="fill: rgb(255, 255, 255); opacity: 0.2; transform-origin: 225.425px 252.24px;" class="animable" id="elscs8rv4urs"></polygon></g><g id="el0rr4k0sddn8"><polygon points="236.77 267.18 238.59 266.89 239.48 265.61 238.73 262.94 236.77 267.18" style="fill: rgb(255, 255, 255); opacity: 0.1; transform-origin: 238.125px 265.06px;" class="animable" id="elrcgqy4y6ug9"></polygon></g><polygon points="234.4 267.84 238.48 260.89 240.11 261.86 235.99 269.05 234.4 267.84" style="fill: rgb(38, 50, 56); transform-origin: 237.255px 264.97px;" id="el2a6ukvfslve" class="animable"></polygon><g id="elew48k0drbx6"><polygon points="234.4 267.84 238.48 260.89 240.11 261.86 235.99 269.05 234.4 267.84" style="fill: rgb(255, 255, 255); opacity: 0.2; transform-origin: 237.255px 264.97px;" class="animable" id="elrly38qe7p8"></polygon></g><polygon points="232.33 270.73 234.6 274.77 235.08 274.49 232.59 270.41 232.33 270.73" style="fill: rgb(38, 50, 56); transform-origin: 233.705px 272.59px;" id="el5ml2zlxcrmn" class="animable"></polygon><g id="elxmhc4r2nwn"><polygon points="232.33 270.73 234.6 274.77 235.08 274.49 232.59 270.41 232.33 270.73" style="fill: rgb(255, 255, 255); opacity: 0.2; transform-origin: 233.705px 272.59px;" class="animable" id="elpcwb5b9z50p"></polygon></g><polygon points="239.05 289.45 249.14 283.65 249.72 284.73 239.88 290.44 239.05 289.45" style="fill: rgb(38, 50, 56); transform-origin: 244.385px 287.045px;" id="el0wi0ghcdf1zr" class="animable"></polygon><g id="eli2p914umpye"><polygon points="239.05 289.45 249.14 283.65 249.72 284.73 239.88 290.44 239.05 289.45" style="fill: rgb(255, 255, 255); opacity: 0.1; transform-origin: 244.385px 287.045px;" class="animable" id="elrolzik3dl6"></polygon></g><polygon points="244.03 275.33 245.03 277.17 240.19 279.82 238.9 278.04 244.03 275.33" style="fill: rgb(38, 50, 56); transform-origin: 241.965px 277.575px;" id="elj52xv14gxdh" class="animable"></polygon><g id="elfs1bt5mh07v"><polygon points="244.03 275.33 245.03 277.17 240.19 279.82 238.9 278.04 244.03 275.33" style="fill: rgb(255, 255, 255); opacity: 0.05; transform-origin: 241.965px 277.575px;" class="animable" id="ellfxsy3ihthh"></polygon></g><polygon points="232.43 279.15 233.92 281.67 250.53 272.46 248.79 269.96 232.43 279.15" style="fill: rgb(38, 50, 56); transform-origin: 241.48px 275.815px;" id="elr7xqg38d5mb" class="animable"></polygon><polygon points="239.18 279.97 245.32 276.6 246.11 278.02 240.1 281.37 239.18 279.97" style="fill: rgb(38, 50, 56); transform-origin: 242.645px 278.985px;" id="el89jkfq0wz7w" class="animable"></polygon><g id="el1ga0szfh26"><polygon points="232.43 279.15 233.92 281.67 250.53 272.46 248.79 269.96 232.43 279.15" style="fill: rgb(255, 255, 255); opacity: 0.2; transform-origin: 241.48px 275.815px;" class="animable" id="eluvvpkmzefkk"></polygon></g><g id="elf4cfr8bb106"><polygon points="239.18 279.97 245.32 276.6 246.11 278.02 240.1 281.37 239.18 279.97" style="fill: rgb(255, 255, 255); opacity: 0.1; transform-origin: 242.645px 278.985px;" class="animable" id="elrnoix65ghw"></polygon></g><path d="M223.16,264l5.38-2.58,5.15,9.67L229,273.84l-.16-.08a2.7,2.7,0,0,0-2.64,0l-.9.52a1.42,1.42,0,0,0-.64,1.63h0A16.3,16.3,0,0,0,230,284h0a1.21,1.21,0,0,0,1.38.1l1.32-.89a2.23,2.23,0,0,0,1-1.85h0l7.17-3.93.51.94L238,280.3l0,4.28,3,6.07-3,1.7s-11.29-2.06-15.44-10.63S223.16,264,223.16,264Z" style="fill: #90CAF9; transform-origin: 231.12px 276.885px;" id="el5tpgsija0hg" class="animable"></path><g id="el3npyt630721"><path d="M223.16,264l5.38-2.58,5.15,9.67L229,273.84l-.16-.08a2.7,2.7,0,0,0-2.64,0l-.9.52a1.42,1.42,0,0,0-.64,1.63h0A16.3,16.3,0,0,0,230,284h0a1.21,1.21,0,0,0,1.38.1l1.32-.89a2.23,2.23,0,0,0,1-1.85h0l7.17-3.93.51.94L238,280.3l0,4.28,3,6.07-3,1.7s-11.29-2.06-15.44-10.63S223.16,264,223.16,264Z" style="fill: rgb(255, 255, 255); opacity: 0.7; transform-origin: 231.12px 276.885px;" class="animable" id="elwg9oablrb1"></path></g><path d="M231.23,270.89a1.59,1.59,0,1,1-1.8-1.35A1.6,1.6,0,0,1,231.23,270.89Z" style="fill: rgb(38, 50, 56); transform-origin: 229.656px 271.115px;" id="el70qc0ypgrr9" class="animable"></path><polygon points="243.04 286.6 244.23 288.38 250.23 284.97 249.14 283.23 243.04 286.6" style="fill: rgb(38, 50, 56); transform-origin: 246.635px 285.805px;" id="eljgm2tyzw0g" class="animable"></polygon><path d="M231.57,263.37a2.72,2.72,0,1,1-3.08-2.3A2.71,2.71,0,0,1,231.57,263.37Z" style="fill: rgb(38, 50, 56); transform-origin: 228.878px 263.761px;" id="elk0e5glj4uvk" class="animable"></path><g id="elaop7zn9nhu7"><path d="M231.23,270.89a1.59,1.59,0,1,1-1.8-1.35A1.6,1.6,0,0,1,231.23,270.89Z" style="fill: rgb(255, 255, 255); opacity: 0.1; transform-origin: 229.656px 271.115px;" class="animable" id="eloacldg61pn"></path></g><g id="elqwyz9p37c5e"><polygon points="243.04 286.6 244.23 288.38 250.23 284.97 249.14 283.23 243.04 286.6" style="fill: rgb(255, 255, 255); opacity: 0.2; transform-origin: 246.635px 285.805px;" class="animable" id="elznvbeuz70y"></polygon></g><g id="elkqx72su2y7a"><path d="M231.57,263.37a2.72,2.72,0,1,1-3.08-2.3A2.71,2.71,0,0,1,231.57,263.37Z" style="fill: rgb(255, 255, 255); opacity: 0.2; transform-origin: 228.878px 263.761px;" class="animable" id="elvhtqggk72ff"></path></g><g id="elpt8utrd5a4t"><path d="M230.23,263.57a1.37,1.37,0,0,1-1.15,1.54,1.36,1.36,0,1,1,1.15-1.54Z" style="fill: rgb(255, 255, 255); opacity: 0.5; transform-origin: 228.883px 263.764px;" class="animable" id="eleoje8keg3j"></path></g><rect x="235.47" y="292.54" width="14.8" height="1.73" style="fill: rgb(38, 50, 56); transform-origin: 242.87px 293.405px;" id="elphr882c8ce" class="animable"></rect><g id="el3k4yq2q2xsc"><rect x="235.47" y="292.54" width="14.8" height="1.73" style="fill: rgb(255, 255, 255); opacity: 0.1; transform-origin: 242.87px 293.405px;" class="animable" id="elg9yuogmyud7"></rect></g><path d="M227.41,294.27l4.57-7.94a2.68,2.68,0,0,1,2.46-1.34h0a2.68,2.68,0,0,1,2.54,2.57l.26,6.71Z" style="fill: #90CAF9; transform-origin: 232.325px 289.628px;" id="eldgsr18k46al" class="animable"></path><g id="el2ot96i3wqja"><path d="M227.41,294.27l4.57-7.94a2.68,2.68,0,0,1,2.46-1.34h0a2.68,2.68,0,0,1,2.54,2.57l.26,6.71Z" style="fill: rgb(255, 255, 255); opacity: 0.5; transform-origin: 232.325px 289.628px;" class="animable" id="el7x1loocnw1k"></path></g><circle cx="234.16" cy="287.92" r="1.59" style="fill: rgb(38, 50, 56); transform-origin: 234.16px 287.92px;" id="elquok0klr4lo" class="animable"></circle><rect x="223.55" y="294.01" width="29.91" height="2.35" style="fill: rgb(38, 50, 56); transform-origin: 238.505px 295.185px;" id="elll5ltxprrw" class="animable"></rect><g id="els8ffj2qrd2o"><circle cx="234.16" cy="287.92" r="1.59" style="fill: rgb(255, 255, 255); opacity: 0.1; transform-origin: 234.16px 287.92px;" class="animable" id="elg30r7sl5h9s"></circle></g><g id="elbf1kqbi2wv"><rect x="223.55" y="294.01" width="29.91" height="2.35" style="fill: rgb(255, 255, 255); opacity: 0.2; transform-origin: 238.505px 295.185px;" class="animable" id="elo9gp5ald3is"></rect></g><path d="M215.73,264.89l8.47-4.75,2.92,8s-5.46,4.16-10.28,1.21Z" style="fill: rgb(206, 122, 99); transform-origin: 221.425px 265.274px;" id="elb7qrp9sjhg5" class="animable"></path><polygon points="231.11 259.98 231.86 266.45 227.12 268.11 224.2 260.14 231.11 259.98" style="fill: rgb(206, 122, 99); transform-origin: 228.03px 264.045px;" id="elqj461oikdsa" class="animable"></polygon><g id="ela77kwpydar7"><path d="M213.08,266.81c-1.07,2.21-2.27,4.6-3.51,7h0l-2.84.31-.57.06h-.06c.55-1.75,1.46-4.66,2.45-8l.27,0,2.08.26Z" style="opacity: 0.2; transform-origin: 209.59px 270.18px;" class="animable" id="eljq8dmqy3gvn"></path></g><path d="M183.36,245.26c7.16-3.62,12.47,20.79,15.2,22.41s19.54-5.47,19.54-5.47l2.3,10s-18,9.28-23.84,8.65c-8.77-1-14.07-13.14-16.2-24.85C179.4,250.76,181.46,246.23,183.36,245.26Z" style="fill: #90CAF9; transform-origin: 200.258px 262.887px;" id="eld05jg16zqf4" class="animable"></path><g id="el2xig8b2v5xk"><path d="M183.36,245.26c7.16-3.62,12.47,20.79,15.2,22.41s19.54-5.47,19.54-5.47l2.3,10s-18,9.28-23.84,8.65c-8.77-1-14.07-13.14-16.2-24.85C179.4,250.76,181.46,246.23,183.36,245.26Z" style="fill: rgb(255, 255, 255); opacity: 0.7; transform-origin: 200.258px 262.887px;" class="animable" id="el3qeh3rycp25"></path></g></g><g id="freepik--Table--inject-6" class="animable" style="transform-origin: 273.135px 342.612px;"><g id="elrwh7l30ngfa"><rect x="245.82" y="299.35" width="5.07" height="118.29" style="fill: rgb(38, 50, 56); transform-origin: 248.355px 358.495px; transform: rotate(180deg);" class="animable" id="eln4r3hx9lzj"></rect></g><g id="el09xf2sicb7n"><rect x="195.13" y="299.35" width="5.07" height="118.29" style="fill: rgb(38, 50, 56); transform-origin: 197.665px 358.495px; transform: rotate(180deg);" class="animable" id="eljfmbhuaztbm"></rect></g><g id="elxg6v16a08lg"><rect x="346.53" y="299.35" width="5.07" height="118.29" style="fill: rgb(38, 50, 56); transform-origin: 349.065px 358.495px; transform: rotate(180deg);" class="animable" id="eltqdy7osyrd"></rect></g><g id="elmjiqvrutr4b"><rect x="245.82" y="299.35" width="5.07" height="118.29" style="fill: rgb(255, 255, 255); opacity: 0.6; transform-origin: 248.355px 358.495px; transform: rotate(180deg);" class="animable" id="elyycvax1px6"></rect></g><g id="elkf6q0kdqka"><rect x="195.13" y="299.35" width="5.07" height="118.29" style="fill: rgb(255, 255, 255); opacity: 0.6; transform-origin: 197.665px 358.495px; transform: rotate(180deg);" class="animable" id="el7jwoh8rglpf"></rect></g><g id="elwbt3jcv4goh"><rect x="346.53" y="299.35" width="5.07" height="118.29" style="fill: rgb(255, 255, 255); opacity: 0.6; transform-origin: 349.065px 358.495px; transform: rotate(180deg);" class="animable" id="ela8yumvrw60k"></rect></g><g id="elgnciooqg77h"><rect x="194.21" y="297.17" width="157.84" height="6.79" style="fill: rgb(38, 50, 56); transform-origin: 273.13px 300.565px; transform: rotate(180deg);" class="animable" id="elljb1gsac4iq"></rect></g><g id="ell20jtfa24ua"><rect x="194.21" y="297.17" width="157.84" height="6.79" style="fill: rgb(255, 255, 255); opacity: 0.6; transform-origin: 273.13px 300.565px; transform: rotate(180deg);" class="animable" id="elhxct9rzcpkb"></rect></g><path d="M191.88,298.51h162.5a1.34,1.34,0,0,0,1.35-1.34h0a1.34,1.34,0,0,0-1.35-1.34H191.88a1.34,1.34,0,0,0-1.34,1.34h0A1.34,1.34,0,0,0,191.88,298.51Z" style="fill: rgb(38, 50, 56); transform-origin: 273.135px 297.17px;" id="elyzm48gumnnr" class="animable"></path><g id="el5s7y7rihen"><path d="M191.88,298.51h162.5a1.34,1.34,0,0,0,1.35-1.34h0a1.34,1.34,0,0,0-1.35-1.34H191.88a1.34,1.34,0,0,0-1.34,1.34h0A1.34,1.34,0,0,0,191.88,298.51Z" style="fill: rgb(255, 255, 255); opacity: 0.7; transform-origin: 273.135px 297.17px;" class="animable" id="elqqtyv9r7dl"></path></g><g id="el7952ozgywww"><rect x="295.85" y="299.35" width="5.07" height="118.29" style="fill: rgb(38, 50, 56); transform-origin: 298.385px 358.495px; transform: rotate(180deg);" class="animable" id="el4god1fqwlv6"></rect></g><g id="el0s40ikghn0sd"><rect x="295.85" y="299.35" width="5.07" height="118.29" style="fill: rgb(255, 255, 255); opacity: 0.6; transform-origin: 298.385px 358.495px; transform: rotate(180deg);" class="animable" id="elg4180m3iypa"></rect></g><path d="M258.21,293.28v2.36c0,.6.72.85,1.31.85h47.12c.61,0,1.34-.25,1.34-.85v-2.36Z" style="fill: #90CAF9; transform-origin: 283.095px 294.885px;" id="elt6tm7n61jxn" class="animable"></path><g id="elfdiz1bsphrd"><path d="M258.21,293.28v2.36c0,.6.72.85,1.31.85h47.12c.61,0,1.34-.25,1.34-.85v-2.36Z" style="fill: rgb(255, 255, 255); isolation: isolate; opacity: 0.4; transform-origin: 283.095px 294.885px;" class="animable" id="elwyfjqw5ebm"></path></g><g id="elik39sk6rn7e"><path d="M258.21,293.28v2.36c0,.6.72.85,1.31.85H290.6c.61,0,1.32-.25,1.32-.85v-2.36Z" style="isolation: isolate; opacity: 0.2; transform-origin: 275.065px 294.885px;" class="animable" id="el4rh876rnbzo"></path></g><path d="M250.33,268.8l5.61,25.44a1.91,1.91,0,0,0,1.82,1.45H288.4a1.23,1.23,0,0,0,1.15-1.6L284,268.84a1.76,1.76,0,0,0-1.82-1.25H251.49C250.66,267.59,250.15,268,250.33,268.8Z" style="fill: #90CAF9; transform-origin: 269.95px 281.637px;" id="el3pzng5jw0v8" class="animable"></path><g id="el6u6hs460jqg"><path d="M250.33,268.8l5.61,25.44a1.91,1.91,0,0,0,1.82,1.45h29.6a1.24,1.24,0,0,0,1.16-1.6l-5.61-25.25a1.75,1.75,0,0,0-1.82-1.25h-29.6C250.66,267.59,250.15,268,250.33,268.8Z" style="fill: rgb(255, 255, 255); isolation: isolate; opacity: 0.4; transform-origin: 269.434px 281.637px;" class="animable" id="el8eg2a5blazr"></path></g><g id="elnuimf6h1zus"><path d="M265.44,281.73h0a4.37,4.37,0,0,0,4,3.94c1.72,0,2.73-1.77,2.24-3.94s-2.19-3.88-3.86-3.95c.48,2.18-.56,3.95-2.27,3.95Z" style="isolation: isolate; opacity: 0.2; transform-origin: 268.622px 281.725px;" class="animable" id="elpyoozffsr6c"></path></g><rect x="300.65" y="276.87" width="0.99" height="16.42" style="fill: rgb(38, 50, 56); transform-origin: 301.145px 285.08px;" id="elmwbcrsk79" class="animable"></rect><rect x="328.67" y="276.87" width="0.99" height="16.42" style="fill: rgb(38, 50, 56); transform-origin: 329.165px 285.08px;" id="eldvzzjnryjur" class="animable"></rect><path d="M305.36,293.29h0a1.58,1.58,0,0,1-1.58-1.58v-18.3H307v18.3A1.59,1.59,0,0,1,305.36,293.29Z" style="fill: #90CAF9; transform-origin: 305.39px 283.35px;" id="elmtwyozqunz" class="animable"></path><g id="eleq2w5xqgnr6"><path d="M305.36,293.29h0a1.58,1.58,0,0,1-1.58-1.58v-18.3H307v18.3A1.59,1.59,0,0,1,305.36,293.29Z" style="fill: rgb(255, 255, 255); opacity: 0.8; transform-origin: 305.39px 283.35px;" class="animable" id="elec86d42lu57"></path></g><path d="M304.09,281v10.67a1.27,1.27,0,0,0,1.27,1.27h0a1.27,1.27,0,0,0,1.28-1.27V281Z" style="fill: #90CAF9; transform-origin: 305.365px 286.97px;" id="elwq8yb12pv8j" class="animable"></path><path d="M306.92,273.7h-3.11a.27.27,0,0,1-.26-.27h0a.26.26,0,0,1,.26-.26h3.11a.26.26,0,0,1,.26.26h0A.27.27,0,0,1,306.92,273.7Z" style="fill: #90CAF9; transform-origin: 305.365px 273.435px;" id="eljcehrbimd0j" class="animable"></path><g id="elokg06h502nj"><path d="M306.92,273.7h-3.11a.27.27,0,0,1-.26-.27h0a.26.26,0,0,1,.26-.26h3.11a.26.26,0,0,1,.26.26h0A.27.27,0,0,1,306.92,273.7Z" style="fill: rgb(255, 255, 255); opacity: 0.4; transform-origin: 305.365px 273.435px;" class="animable" id="el7n0ckmre3jk"></path></g><path d="M310.31,273.41h3.16a0,0,0,0,1,0,0v18.3a1.58,1.58,0,0,1-1.58,1.58h0a1.58,1.58,0,0,1-1.58-1.58v-18.3A0,0,0,0,1,310.31,273.41Z" style="fill: #90CAF9; transform-origin: 311.89px 283.35px;" id="el9jzviaobuzs" class="animable"></path><g id="elicuggqc4o4"><path d="M310.31,273.41h3.16a0,0,0,0,1,0,0v18.3a1.58,1.58,0,0,1-1.58,1.58h0a1.58,1.58,0,0,1-1.58-1.58v-18.3A0,0,0,0,1,310.31,273.41Z" style="fill: rgb(255, 255, 255); opacity: 0.8; transform-origin: 311.89px 283.35px;" class="animable" id="el9bb7j7vj328"></path></g><path d="M310.62,281v10.67a1.27,1.27,0,0,0,1.27,1.27h0a1.27,1.27,0,0,0,1.28-1.27V281Z" style="fill: #90CAF9; transform-origin: 311.895px 286.97px;" id="elkyiajvbvab" class="animable"></path><path d="M313.44,273.7h-3.1a.27.27,0,0,1-.26-.27h0a.26.26,0,0,1,.26-.26h3.1a.27.27,0,0,1,.27.26h0A.27.27,0,0,1,313.44,273.7Z" style="fill: #90CAF9; transform-origin: 311.895px 273.435px;" id="elcihnr8zddzg" class="animable"></path><g id="elnj6k8ex7bdk"><path d="M313.44,273.7h-3.1a.27.27,0,0,1-.26-.27h0a.26.26,0,0,1,.26-.26h3.1a.27.27,0,0,1,.27.26h0A.27.27,0,0,1,313.44,273.7Z" style="fill: rgb(255, 255, 255); opacity: 0.4; transform-origin: 311.895px 273.435px;" class="animable" id="elvsbro8flocf"></path></g><path d="M318.42,293.29h0a1.58,1.58,0,0,1-1.58-1.58v-18.3H320v18.3A1.58,1.58,0,0,1,318.42,293.29Z" style="fill: #90CAF9; transform-origin: 318.42px 283.35px;" id="el0lwft64y39tl" class="animable"></path><g id="elsztpvhnu99"><path d="M318.42,293.29h0a1.58,1.58,0,0,1-1.58-1.58v-18.3H320v18.3A1.58,1.58,0,0,1,318.42,293.29Z" style="fill: rgb(255, 255, 255); opacity: 0.8; transform-origin: 318.42px 283.35px;" class="animable" id="el6omqumgiwq"></path></g><path d="M317.14,281v10.67a1.28,1.28,0,0,0,1.28,1.27h0a1.27,1.27,0,0,0,1.27-1.27V281Z" style="fill: #90CAF9; transform-origin: 318.415px 286.97px;" id="el8zr0ts8qzxh" class="animable"></path><path d="M320,273.7h-3.1a.26.26,0,0,1-.26-.27h0a.26.26,0,0,1,.26-.26H320a.26.26,0,0,1,.26.26h0A.26.26,0,0,1,320,273.7Z" style="fill: #90CAF9; transform-origin: 318.45px 273.435px;" id="el3kq0qmg4cw6" class="animable"></path><g id="els0rqxb8t54n"><path d="M320,273.7h-3.1a.26.26,0,0,1-.26-.27h0a.26.26,0,0,1,.26-.26H320a.26.26,0,0,1,.26.26h0A.26.26,0,0,1,320,273.7Z" style="fill: rgb(255, 255, 255); opacity: 0.4; transform-origin: 318.45px 273.435px;" class="animable" id="elie024mks3w8"></path></g><path d="M325,293.29h0a1.58,1.58,0,0,1-1.58-1.58v-18.3h3.16v18.3A1.58,1.58,0,0,1,325,293.29Z" style="fill: #90CAF9; transform-origin: 325px 283.35px;" id="el4sxjdj8e6f3" class="animable"></path><g id="elv5407cevs8"><path d="M325,293.29h0a1.58,1.58,0,0,1-1.58-1.58v-18.3h3.16v18.3A1.58,1.58,0,0,1,325,293.29Z" style="fill: rgb(255, 255, 255); opacity: 0.8; transform-origin: 325px 283.35px;" class="animable" id="eljve4c1267zm"></path></g><path d="M323.67,281v10.67A1.27,1.27,0,0,0,325,293h0a1.27,1.27,0,0,0,1.27-1.27V281Z" style="fill: #90CAF9; transform-origin: 324.969px 287.001px;" id="el5qir8uwx75k" class="animable"></path><path d="M326.5,273.7h-3.1a.27.27,0,0,1-.27-.27h0a.27.27,0,0,1,.27-.26h3.1a.26.26,0,0,1,.26.26h0A.27.27,0,0,1,326.5,273.7Z" style="fill: #90CAF9; transform-origin: 324.945px 273.435px;" id="eluti58a0ipm" class="animable"></path><g id="elj0s699h5wt"><path d="M326.5,273.7h-3.1a.27.27,0,0,1-.27-.27h0a.27.27,0,0,1,.27-.26h3.1a.26.26,0,0,1,.26.26h0A.27.27,0,0,1,326.5,273.7Z" style="fill: rgb(255, 255, 255); opacity: 0.4; transform-origin: 324.945px 273.435px;" class="animable" id="elcb16287uje"></path></g><rect x="299.32" y="292.4" width="31.67" height="3.44" style="fill: rgb(38, 50, 56); transform-origin: 315.155px 294.12px;" id="elwga2943sosr" class="animable"></rect><rect x="299.67" y="276.18" width="30.98" height="1.38" style="fill: rgb(38, 50, 56); transform-origin: 315.16px 276.87px;" id="elvlteha2rq5o" class="animable"></rect><g id="eltob2xx7tlks"><rect x="299.32" y="292.4" width="31.67" height="3.44" style="fill: rgb(255, 255, 255); opacity: 0.2; transform-origin: 315.155px 294.12px;" class="animable" id="eliad5f52nt2"></rect></g><g id="elfkobttm4afb"><rect x="299.67" y="276.18" width="30.98" height="1.38" style="fill: rgb(255, 255, 255); opacity: 0.2; transform-origin: 315.16px 276.87px;" class="animable" id="el9u4zrmnqtx"></rect></g><rect x="297.88" y="294.6" width="34.55" height="1.23" style="fill: rgb(38, 50, 56); transform-origin: 315.155px 295.215px;" id="elw1pi2y3kr8" class="animable"></rect><path d="M347.7,293.79l-4.88-7.27v-12.3h-3.17v12.3l-4.88,7.27a1.31,1.31,0,0,0,1.09,2h10.75A1.31,1.31,0,0,0,347.7,293.79Z" style="fill: #90CAF9; transform-origin: 341.235px 285.005px;" id="elr4cnf68z6vi" class="animable"></path><g id="eliwzxd35i2w"><path d="M347.7,293.79l-4.88-7.27v-12.3h-3.17v12.3l-4.88,7.27a1.31,1.31,0,0,0,1.09,2h10.75A1.31,1.31,0,0,0,347.7,293.79Z" style="fill: rgb(255, 255, 255); opacity: 0.8; transform-origin: 341.235px 285.005px;" class="animable" id="elttc0qks57z8"></path></g><path d="M345.47,291.37H337l-1.81,2.7a.78.78,0,0,0,0,.83.79.79,0,0,0,.71.43h10.75a.79.79,0,0,0,.71-.43.78.78,0,0,0,0-.83Z" style="fill: #90CAF9; transform-origin: 341.275px 293.35px;" id="elsfekndy8of" class="animable"></path><path d="M342.79,274.51h-3.11a.26.26,0,0,1-.26-.26h0a.26.26,0,0,1,.26-.26h3.11a.26.26,0,0,1,.26.26h0A.26.26,0,0,1,342.79,274.51Z" style="fill: #90CAF9; transform-origin: 341.235px 274.25px;" id="el7yx0hh5hzta" class="animable"></path><g id="elx5h15il1e3m"><path d="M342.79,274.51h-3.11a.26.26,0,0,1-.26-.26h0a.26.26,0,0,1,.26-.26h3.11a.26.26,0,0,1,.26.26h0A.26.26,0,0,1,342.79,274.51Z" style="fill: rgb(255, 255, 255); opacity: 0.4; transform-origin: 341.235px 274.25px;" class="animable" id="el484eh28f5tw"></path></g></g><defs>     <filter id="active" height="200%">         <feMorphology in="SourceAlpha" result="DILATED" operator="dilate" radius="2"></feMorphology>                <feFlood flood-color="#32DFEC" flood-opacity="1" result="PINK"></feFlood>        <feComposite in="PINK" in2="DILATED" operator="in" result="OUTLINE"></feComposite>        <feMerge>            <feMergeNode in="OUTLINE"></feMergeNode>            <feMergeNode in="SourceGraphic"></feMergeNode>        </feMerge>    </filter>    <filter id="hover" height="200%">        <feMorphology in="SourceAlpha" result="DILATED" operator="dilate" radius="2"></feMorphology>                <feFlood flood-color="#ff0000" flood-opacity="0.5" result="PINK"></feFlood>        <feComposite in="PINK" in2="DILATED" operator="in" result="OUTLINE"></feComposite>        <feMerge>            <feMergeNode in="OUTLINE"></feMergeNode>            <feMergeNode in="SourceGraphic"></feMergeNode>        </feMerge>            <feColorMatrix type="matrix" values="0   0   0   0   0                0   1   0   0   0                0   0   0   0   0                0   0   0   1   0 "></feColorMatrix>    </filter></defs></svg>